<?xml version="1.0" standalone="no"?>
<!DOCTYPE svg PUBLIC "-//W3C//DTD SVG 20010904//EN"
 "http://www.w3.org/TR/2001/REC-SVG-20010904/DTD/svg10.dtd">
<svg version="1.0" xmlns="http://www.w3.org/2000/svg"
 width="1536.000000pt" height="1536.000000pt" viewBox="0 0 1536.000000 1536.000000"
 preserveAspectRatio="xMidYMid meet">

<g transform="translate(0.000000,1536.000000) scale(0.100000,-0.100000)"
fill="#000000" stroke="none">
<path d="M7160 13050 c-404 -49 -692 -147 -998 -341 -164 -105 -244 -169 -387
-313 -241 -242 -426 -539 -530 -851 -30 -89 -64 -214 -74 -272 -6 -35 -17 -91
-23 -125 -18 -86 -17 -539 0 -633 35 -194 47 -243 86 -365 148 -467 480 -904
892 -1175 170 -112 416 -227 589 -275 289 -80 406 -94 690 -86 271 9 279 9
550 0 149 -4 248 -2 305 5 111 16 284 49 335 66 22 7 67 20 100 30 135 40 324
127 480 222 392 239 710 614 891 1050 20 48 40 99 45 113 60 194 70 234 101
415 18 109 18 544 0 640 -41 214 -57 276 -102 407 -30 85 -88 223 -118 278
-134 247 -238 388 -416 565 -130 130 -214 198 -357 291 -214 139 -441 238
-672 293 -225 55 -453 78 -626 65 -132 -10 -295 -10 -526 -1 -88 3 -194 2
-235 -3z m390 -235 c249 -28 453 -86 665 -189 364 -176 643 -432 852 -781 32
-55 66 -116 75 -135 105 -231 132 -315 173 -540 55 -294 27 -685 -68 -960
-199 -579 -620 -1022 -1178 -1240 -105 -41 -333 -99 -467 -119 -94 -14 -394
-14 -497 0 -158 21 -397 84 -515 136 -258 114 -428 225 -615 405 -171 163
-309 352 -416 568 -56 112 -130 317 -150 410 -41 200 -42 216 -43 460 0 245 1
256 43 460 29 137 132 394 221 550 106 184 348 454 523 585 304 225 614 345
1022 394 109 13 239 12 375 -4z"/>
<path d="M7295 11976 c-64 -16 -103 -37 -140 -75 -16 -17 -83 -138 -150 -268
-66 -130 -127 -240 -135 -244 -8 -4 -49 -13 -90 -19 -41 -6 -102 -16 -135 -21
-33 -5 -115 -18 -182 -29 -68 -10 -138 -26 -157 -35 -47 -22 -101 -79 -125
-131 -30 -62 -29 -179 0 -237 13 -25 99 -117 217 -233 l195 -191 -6 -39 c-3
-21 -17 -106 -32 -189 -55 -318 -56 -322 -36 -391 32 -115 142 -194 272 -194
53 0 72 7 221 83 90 46 197 103 239 125 42 23 87 42 100 42 13 0 105 -43 204
-95 270 -143 282 -149 346 -153 181 -13 324 147 291 326 -6 31 -16 89 -22 127
-16 104 -28 171 -45 257 -8 43 -12 86 -8 95 3 10 94 106 203 213 188 185 198
198 215 254 41 138 -26 286 -155 338 -27 11 -116 27 -285 52 -221 33 -250 38
-265 45 -8 4 -67 112 -130 239 -141 282 -178 326 -290 347 -19 4 -42 8 -50 10
-8 2 -37 -2 -65 -9z m92 -238 c11 -13 68 -122 128 -242 59 -120 123 -236 141
-256 43 -48 110 -76 210 -90 259 -35 417 -61 436 -71 11 -6 18 -21 18 -38 0
-23 -33 -60 -193 -217 -119 -117 -200 -204 -212 -229 -26 -57 -30 -127 -10
-236 9 -52 21 -121 26 -154 5 -33 14 -87 20 -120 24 -149 24 -151 -5 -170 -26
-17 -28 -17 -129 35 -56 29 -106 56 -112 60 -5 4 -71 38 -145 76 -131 67 -137
69 -210 68 -81 0 -74 3 -310 -123 -260 -138 -255 -136 -285 -117 -24 16 -27
23 -22 55 14 86 27 167 56 335 32 189 32 221 -6 301 -8 17 -102 116 -209 220
-245 240 -247 247 -62 277 62 10 145 23 183 28 184 24 219 31 265 51 29 13 67
40 88 64 21 24 84 138 146 261 59 121 115 227 124 237 21 23 45 21 69 -5z"/>
<path d="M3780 12473 c-61 -32 -80 -115 -38 -168 31 -39 955 -495 1004 -495
101 0 150 130 74 194 -16 13 -103 60 -192 104 -90 44 -297 146 -460 226 -163
80 -309 149 -325 152 -17 3 -42 -2 -63 -13z"/>
<path d="M11530 12483 c-8 -3 -116 -55 -240 -116 -509 -249 -706 -349 -727
-368 -66 -62 -14 -189 78 -189 35 0 227 91 936 442 86 43 113 98 82 167 -23
53 -81 81 -129 64z"/>
<path d="M3785 11471 c-35 -15 -57 -49 -62 -93 -8 -82 37 -120 163 -138 77
-10 133 -19 309 -49 66 -11 149 -25 185 -31 36 -6 132 -22 214 -36 83 -14 160
-23 172 -20 38 10 83 55 89 90 9 45 -16 101 -53 120 -16 8 -58 20 -93 26 -108
19 -181 30 -244 40 -95 14 -135 21 -215 35 -41 7 -109 18 -150 25 -41 6 -95
16 -120 21 -74 14 -174 19 -195 10z"/>
<path d="M11490 11474 c-14 -2 -51 -9 -82 -14 -32 -6 -84 -14 -115 -20 -32 -5
-101 -16 -153 -25 -129 -22 -191 -32 -280 -45 -41 -7 -95 -16 -120 -20 -25 -5
-63 -12 -85 -15 -88 -15 -133 -68 -119 -141 7 -36 49 -80 88 -90 12 -3 76 4
141 16 66 12 147 25 180 30 79 12 159 25 275 45 152 26 211 35 282 45 101 14
135 32 157 81 22 49 15 90 -23 128 -25 24 -87 35 -146 25z"/>
<path d="M4685 10620 c-16 -4 -68 -13 -115 -20 -47 -6 -134 -21 -195 -32 -60
-11 -137 -23 -170 -28 -396 -59 -456 -75 -476 -127 -19 -51 -11 -93 25 -129
40 -40 56 -41 196 -18 133 22 205 33 275 44 33 5 128 21 210 35 83 15 177 30
210 35 33 5 79 12 103 16 54 8 98 48 107 96 9 46 -10 85 -54 115 -35 24 -64
27 -116 13z"/>
<path d="M10595 10612 c-39 -24 -51 -40 -60 -79 -8 -38 16 -95 48 -116 12 -7
56 -19 97 -26 155 -26 187 -31 275 -46 104 -18 172 -29 270 -45 39 -6 121 -19
184 -30 156 -27 184 -26 221 8 43 38 52 80 30 128 -10 22 -28 45 -40 52 -20
12 -156 38 -375 72 -91 15 -162 26 -260 44 -44 8 -116 19 -160 26 -44 6 -99
16 -122 21 -59 13 -74 11 -108 -9z"/>
<path d="M4634 9881 c-591 -287 -873 -432 -893 -457 -33 -42 -25 -118 15 -151
59 -47 71 -44 315 75 601 294 736 362 756 384 66 71 14 188 -83 188 -16 0 -66
-17 -110 -39z"/>
<path d="M10583 9901 c-55 -35 -65 -119 -20 -169 12 -13 102 -63 202 -111 99
-49 314 -154 477 -235 163 -80 304 -146 313 -146 69 0 137 88 114 147 -6 15
-18 37 -27 47 -27 31 -941 478 -987 483 -28 3 -49 -2 -72 -16z"/>
<path d="M6510 8150 l-375 -6 -80 -28 c-119 -41 -181 -80 -272 -171 -64 -65
-90 -100 -121 -166 -73 -151 -72 -139 -72 -894 l0 -674 -1357 -4 c-1184 -3
-1366 -5 -1418 -19 -246 -63 -423 -232 -497 -473 -17 -57 -18 -133 -18 -1457
0 -1494 -2 -1438 48 -1551 73 -164 219 -303 382 -363 127 -46 -115 -44 4950
-44 5065 0 4823 -2 4950 44 151 56 292 181 360 320 75 152 70 1 70 1946 0
1922 4 1796 -61 1928 -83 169 -237 297 -429 356 -24 7 -478 12 -1415 16
l-1380 5 -5 345 c-7 384 -9 404 -78 534 -47 90 -156 206 -241 256 -36 21 -102
51 -146 66 l-80 27 -435 8 c-496 8 -1723 8 -2280 -1z m2032 -241 c109 -23 226
-108 283 -206 58 -99 55 81 55 -2655 l0 -2518 -1530 0 -1530 0 0 2518 c0 2461
0 2518 19 2570 56 151 170 256 320 291 56 14 2319 13 2383 0z m3338 -1240
c129 -55 208 -126 261 -234 l34 -70 3 -1735 c2 -1606 1 -1739 -15 -1790 -43
-140 -157 -252 -302 -296 -38 -11 -267 -14 -1398 -14 l-1353 0 0 2073 c0 1141
3 2077 7 2081 4 3 619 5 1367 3 1185 -2 1366 -5 1396 -18z m-6290 -2414 l0
-1725 -1352 0 c-966 0 -1362 3 -1387 11 -110 34 -183 85 -245 169 -87 119 -81
-6 -81 1555 l0 1380 39 79 c60 124 141 194 276 237 52 17 139 18 1403 18
l1347 1 0 -1725z"/>
<path d="M7385 6380 c-4 -6 -18 -45 -31 -86 -56 -177 -123 -256 -259 -302 -72
-24 -266 -62 -320 -62 -50 0 -56 -15 -53 -136 l3 -109 283 -3 282 -2 0 -853
c0 -468 4 -858 8 -865 7 -9 47 -12 168 -10 l159 3 0 1215 0 1215 -117 3 c-76
2 -119 -1 -123 -8z"/>
<path d="M10445 5485 c-242 -39 -393 -177 -454 -417 -16 -63 -26 -155 -22
-216 1 -10 27 -12 114 -10 l112 3 3 35 c8 122 57 252 115 308 18 17 57 43 87
59 51 26 63 28 175 28 112 0 124 -2 175 -28 74 -38 117 -81 148 -147 23 -48
26 -69 27 -155 0 -85 -4 -107 -23 -146 -30 -61 -83 -122 -146 -168 -49 -36
-233 -151 -241 -151 -3 0 -29 -16 -59 -35 -30 -19 -58 -35 -61 -35 -4 0 -50
-29 -103 -64 -141 -93 -224 -180 -277 -291 -49 -103 -82 -228 -87 -330 l-3
-70 625 0 625 0 0 105 0 105 -497 3 c-310 1 -498 6 -498 12 0 5 12 35 26 67
54 116 188 228 439 363 299 161 421 262 490 405 136 282 -6 641 -295 744 -49
17 -205 41 -265 40 -27 -1 -86 -7 -130 -14z"/>
<path d="M3805 5121 c-140 -40 -248 -129 -309 -254 -43 -88 -52 -119 -67 -226
-10 -69 -9 -85 2 -92 8 -5 58 -9 112 -9 96 0 98 1 107 26 6 14 10 40 10 58 0
91 77 223 153 263 82 42 227 56 321 31 67 -18 146 -76 181 -132 28 -46 30 -56
29 -140 0 -61 -6 -103 -17 -127 -51 -115 -168 -169 -362 -169 l-85 0 0 -95 c0
-69 3 -95 13 -96 6 -1 28 0 47 0 63 2 234 -26 291 -48 118 -45 179 -143 179
-290 0 -107 -30 -180 -105 -252 -137 -134 -433 -141 -573 -15 -47 43 -85 125
-102 221 -7 39 -14 76 -16 83 -5 17 -217 17 -232 -1 -11 -13 6 -149 27 -217
39 -125 155 -271 251 -317 170 -82 419 -93 620 -26 171 56 325 220 362 385 17
76 21 219 7 278 -29 127 -115 241 -218 289 -48 23 -68 51 -37 51 22 0 114 88
142 136 49 84 67 222 43 336 -38 181 -171 306 -372 352 -96 22 -321 21 -402
-3z"/>
</g>
</svg>
