<?xml version="1.0" standalone="no"?>
<!DOCTYPE svg PUBLIC "-//W3C//DTD SVG 20010904//EN"
 "http://www.w3.org/TR/2001/REC-SVG-20010904/DTD/svg10.dtd">
<svg version="1.0" xmlns="http://www.w3.org/2000/svg"
 width="1080.000000pt" height="1080.000000pt" viewBox="0 0 1080.000000 1080.000000"
 preserveAspectRatio="xMidYMid meet">

<g transform="translate(0.000000,1080.000000) scale(0.100000,-0.100000)"
fill="#000000" stroke="none">
<path d="M2709 8154 c-11 -14 -15 -78 -19 -313 l-5 -296 -196 -6 c-107 -3
-201 -9 -209 -14 -7 -5 -49 -11 -94 -15 -70 -7 -83 -11 -104 -35 -23 -27 -23
-31 -21 -201 2 -189 -1 -204 -52 -204 -15 0 -31 -4 -34 -10 -3 -5 -16 -10 -29
-10 -12 0 -31 -7 -42 -15 -10 -8 -31 -15 -45 -15 -15 0 -32 -7 -39 -15 -7 -8
-19 -15 -27 -15 -13 0 -102 -37 -113 -47 -3 -3 -7 -63 -10 -135 l-5 -130 -40
-15 c-22 -8 -49 -17 -60 -19 -11 -3 -29 -10 -40 -15 -11 -5 -50 -20 -86 -33
-37 -14 -97 -39 -133 -56 l-66 -31 0 -1909 c0 -1168 4 -1911 9 -1915 9 -5 65
15 101 36 8 5 22 12 30 15 8 3 28 12 43 20 16 7 36 14 45 14 9 0 26 7 36 15
11 8 31 15 45 15 14 0 35 7 45 15 11 8 30 15 42 15 12 0 35 7 50 15 16 8 41
15 56 15 15 0 30 4 33 10 3 5 17 10 29 10 13 0 46 6 72 14 45 13 90 23 259 56
33 7 94 16 135 20 41 5 88 13 103 19 16 6 61 11 102 11 41 0 107 7 147 16 108
25 1282 25 1433 0 55 -9 141 -16 190 -16 50 -1 119 -7 155 -15 36 -8 95 -14
132 -15 37 0 93 -7 125 -15 31 -8 82 -15 113 -15 30 0 80 -7 110 -15 30 -8 79
-15 108 -15 29 0 60 -4 70 -9 9 -6 55 -15 102 -21 47 -6 112 -16 145 -22 75
-13 113 -13 195 1 36 5 108 17 160 26 52 9 131 20 175 24 44 5 93 14 108 20
16 6 54 11 85 11 31 0 84 7 117 15 33 8 92 15 130 15 39 0 97 7 130 15 33 8
101 14 150 15 50 0 135 7 190 16 151 25 1325 25 1433 0 40 -9 106 -16 147 -16
41 0 86 -5 102 -11 15 -6 64 -15 108 -19 44 -5 105 -14 135 -20 30 -6 89 -18
130 -27 41 -8 89 -19 105 -23 17 -5 49 -12 73 -16 23 -4 45 -11 48 -15 3 -5
15 -9 27 -9 25 0 109 -25 150 -46 16 -8 39 -14 51 -14 12 0 31 -7 42 -15 10
-8 28 -15 39 -15 11 0 29 -7 39 -15 11 -8 30 -15 42 -15 12 0 27 -7 34 -15 7
-8 19 -15 27 -15 7 0 25 -7 38 -16 13 -9 29 -13 35 -9 15 9 14 3835 -1 3835
-6 0 -40 13 -76 30 -35 16 -75 33 -89 36 -13 3 -27 10 -30 15 -3 5 -12 9 -21
9 -8 0 -29 6 -46 14 -18 8 -41 16 -52 19 -11 3 -38 12 -60 20 l-40 15 -5 130
c-3 72 -7 132 -10 135 -11 10 -100 47 -114 47 -8 0 -16 5 -18 11 -2 5 -19 14
-38 19 -41 10 -98 29 -122 41 -10 5 -28 9 -41 9 -44 0 -47 14 -47 201 0 171
-1 179 -23 205 -20 23 -33 28 -103 34 -45 4 -86 10 -94 15 -7 4 -101 11 -209
14 l-196 6 -5 296 c-4 230 -8 300 -19 312 -11 14 -34 17 -128 17 -63 0 -122
-4 -132 -10 -10 -5 -60 -12 -112 -15 -52 -4 -103 -10 -114 -15 -11 -5 -49 -13
-85 -19 -142 -22 -195 -33 -205 -42 -5 -5 -22 -9 -37 -9 -16 0 -45 -7 -65 -15
-19 -8 -48 -15 -62 -15 -15 0 -36 -7 -47 -15 -10 -8 -31 -15 -45 -15 -14 0
-34 -7 -45 -15 -10 -8 -29 -15 -41 -15 -12 0 -37 -6 -55 -14 -18 -8 -52 -21
-75 -30 -134 -50 -145 -55 -223 -89 -30 -14 -77 -34 -105 -47 -27 -12 -57 -26
-65 -30 -8 -5 -67 -38 -131 -74 -64 -36 -159 -94 -210 -130 -52 -36 -116 -81
-144 -100 -131 -90 -373 -317 -480 -449 -40 -49 -78 -87 -87 -87 -10 0 -18 3
-18 8 0 4 -12 21 -27 38 -16 16 -51 59 -80 94 -146 184 -530 485 -813 639 -52
29 -102 56 -110 61 -8 4 -31 15 -50 23 -19 9 -75 34 -123 56 -49 23 -92 41
-96 41 -5 0 -30 9 -57 21 -88 37 -143 57 -189 68 -17 4 -40 13 -52 19 -12 7
-32 12 -45 12 -13 0 -32 7 -42 15 -11 8 -31 15 -44 15 -13 0 -47 7 -76 16 -91
29 -115 35 -163 44 -27 5 -86 16 -133 25 -145 28 -310 47 -436 52 -105 4 -122
2 -135 -13z m356 -106 c28 -5 82 -13 120 -17 39 -4 80 -13 92 -19 12 -7 39
-12 60 -12 21 -1 56 -7 78 -15 22 -8 49 -15 60 -15 11 0 40 -6 65 -14 25 -8
68 -21 96 -30 29 -9 60 -16 71 -16 10 0 24 -5 30 -11 6 -6 26 -14 44 -19 38
-9 96 -29 119 -40 9 -4 30 -11 48 -14 17 -4 34 -12 37 -17 4 -5 13 -9 21 -9
13 0 75 -27 214 -92 36 -17 81 -38 100 -47 19 -9 39 -22 43 -28 4 -7 14 -13
22 -13 23 0 238 -134 395 -246 71 -50 244 -199 311 -266 45 -46 202 -224 237
-269 10 -13 12 -401 12 -1895 0 -1034 -4 -1879 -8 -1879 -5 0 -38 34 -74 75
-111 126 -362 348 -473 418 -22 14 -42 28 -45 32 -3 3 -23 17 -45 30 -22 13
-44 30 -48 37 -4 7 -16 13 -27 13 -10 0 -20 4 -22 8 -7 18 -275 162 -418 225
-75 33 -186 76 -213 83 -15 3 -30 10 -33 15 -3 5 -14 9 -26 9 -11 0 -32 6 -46
14 -36 18 -90 36 -133 45 -19 4 -42 12 -49 16 -8 5 -32 12 -55 16 -51 10 -121
28 -160 41 -16 6 -52 14 -80 18 -27 4 -90 15 -140 25 -49 9 -130 21 -180 25
-49 5 -128 15 -175 23 l-85 13 -3 1900 c-1 1044 0 1904 2 1911 6 14 176 8 261
-9z m4935 -1888 c0 -1520 -3 -1911 -12 -1914 -22 -6 -169 -27 -253 -36 -44 -5
-123 -16 -175 -25 -52 -10 -117 -21 -145 -25 -27 -4 -63 -12 -80 -18 -38 -13
-108 -31 -160 -41 -22 -4 -50 -13 -62 -19 -12 -7 -32 -12 -45 -12 -13 0 -33
-7 -44 -15 -10 -8 -30 -15 -44 -15 -14 0 -34 -7 -44 -15 -11 -8 -30 -15 -42
-15 -13 0 -25 -4 -28 -9 -3 -5 -18 -12 -33 -15 -54 -13 -367 -150 -423 -186
-8 -5 -35 -19 -60 -31 -25 -12 -70 -39 -100 -59 -31 -21 -65 -40 -77 -44 -12
-4 -24 -13 -27 -21 -3 -8 -10 -15 -16 -15 -27 0 -273 -186 -380 -286 -137
-129 -199 -192 -235 -237 -21 -26 -42 -46 -47 -45 -5 2 -8 822 -8 1882 0 1452
3 1882 12 1895 7 9 17 21 23 26 5 6 40 46 77 90 72 87 205 219 308 305 35 30
71 61 79 68 7 7 26 21 40 30 14 9 58 40 98 69 40 29 75 53 79 53 4 0 21 10 38
23 52 39 186 117 201 117 7 0 17 5 20 11 6 9 141 76 255 126 19 9 43 20 53 25
9 4 39 15 65 24 26 9 61 22 77 28 43 18 95 37 130 46 39 11 91 29 133 46 18 8
44 14 58 14 13 0 41 7 61 15 19 8 48 15 63 15 15 0 44 7 63 15 20 8 52 15 70
15 19 0 51 7 70 15 20 8 59 15 86 15 27 0 62 5 78 11 24 9 153 22 271 28 l32
1 0 -1910z m-5310 -347 l5 -1632 21 -22 c19 -18 38 -22 175 -29 85 -5 167 -13
182 -19 16 -6 50 -11 76 -11 27 0 68 -7 91 -15 23 -8 57 -15 75 -15 18 0 49
-7 68 -15 20 -8 48 -15 63 -15 14 0 49 -7 78 -16 28 -9 71 -22 96 -30 25 -8
54 -14 65 -14 11 -1 29 -7 39 -15 11 -8 32 -15 47 -15 15 0 30 -4 33 -9 3 -5
22 -12 42 -16 20 -3 44 -10 53 -15 9 -5 43 -19 76 -31 33 -13 64 -27 69 -31 6
-4 16 -8 23 -8 8 0 65 -25 127 -55 63 -30 125 -59 137 -65 13 -5 31 -14 39
-20 57 -37 202 -120 211 -120 5 0 12 -7 15 -15 4 -8 10 -15 15 -15 37 0 468
-342 469 -372 0 -20 -24 -15 -55 12 -11 10 -48 32 -83 50 -34 18 -65 36 -68
41 -3 5 -14 9 -25 9 -10 0 -19 4 -19 10 0 8 -358 190 -374 190 -3 0 -36 14
-73 31 -165 75 -199 89 -216 89 -9 0 -18 4 -21 9 -3 5 -38 19 -78 32 -40 12
-77 26 -82 31 -6 4 -16 8 -24 8 -8 0 -28 6 -45 13 -53 23 -134 47 -154 47 -11
0 -28 7 -39 15 -10 8 -35 15 -55 15 -19 0 -44 7 -55 15 -10 8 -33 15 -50 15
-17 0 -48 7 -67 15 -20 8 -53 15 -72 15 -20 0 -46 5 -58 12 -12 6 -51 15 -87
19 -148 19 -228 30 -280 40 -87 17 -491 23 -595 9 -49 -6 -123 -14 -162 -17
l-73 -6 0 1755 0 1756 31 6 c17 3 52 6 78 6 25 1 84 7 131 15 47 7 128 13 180
12 l95 -2 5 -1632z m5660 1627 c36 -6 111 -14 167 -19 57 -4 106 -11 110 -15
5 -4 8 -794 8 -1754 l0 -1747 -65 0 c-36 0 -112 7 -170 14 -118 15 -504 10
-600 -8 -52 -10 -134 -22 -280 -40 -36 -4 -75 -13 -87 -19 -12 -7 -39 -12 -60
-12 -21 -1 -49 -7 -63 -15 -14 -8 -43 -14 -66 -15 -22 0 -45 -5 -52 -12 -6 -6
-30 -14 -54 -18 -24 -5 -56 -13 -73 -18 -16 -6 -75 -25 -130 -42 -55 -17 -107
-35 -115 -39 -9 -5 -30 -12 -48 -15 -17 -4 -34 -12 -37 -17 -4 -5 -15 -9 -27
-9 -11 0 -32 -6 -46 -14 -15 -8 -47 -21 -72 -31 -57 -21 -111 -45 -130 -56 -8
-5 -22 -12 -30 -15 -84 -33 -172 -72 -202 -91 -21 -13 -42 -23 -48 -23 -16 0
-205 -100 -208 -111 -2 -5 -12 -9 -22 -9 -10 0 -21 -4 -24 -9 -3 -5 -25 -19
-48 -31 -24 -12 -66 -38 -94 -56 -59 -39 -64 -40 -63 -16 0 9 34 44 76 77 41
33 86 70 100 82 60 56 203 162 295 218 9 5 54 33 100 61 116 73 151 93 168
100 8 4 70 33 137 65 67 33 128 59 136 59 7 0 17 4 23 8 5 4 36 18 69 31 33
12 67 26 76 31 9 5 33 12 53 15 20 4 39 11 42 16 3 5 17 9 31 9 13 0 37 6 51
14 29 14 91 32 157 45 22 4 56 12 75 18 63 20 124 34 180 43 30 4 68 13 83 19
16 6 53 11 83 11 31 0 64 5 75 10 11 6 90 15 177 20 152 8 158 10 179 35 l23
26 0 1623 c0 892 3 1626 7 1629 10 10 159 8 233 -3z m-6295 -470 c3 -5 6 -713
5 -1572 0 -1243 3 -1568 13 -1588 16 -32 58 -37 141 -16 123 31 462 40 736 19
80 -6 158 -16 173 -22 16 -6 50 -11 76 -11 27 0 68 -7 91 -15 23 -8 59 -15 80
-15 21 0 54 -7 73 -15 20 -8 50 -15 66 -15 16 0 32 -4 36 -9 3 -6 27 -13 53
-17 26 -3 52 -10 57 -14 6 -4 29 -11 52 -15 24 -4 45 -11 49 -16 3 -5 14 -9
26 -9 11 0 34 -6 51 -14 18 -8 43 -16 57 -19 14 -3 43 -12 65 -21 22 -8 65
-25 95 -36 30 -12 66 -25 80 -29 14 -5 53 -21 85 -35 33 -15 69 -31 80 -36 11
-5 38 -16 60 -26 22 -9 108 -49 190 -89 83 -39 157 -75 165 -78 8 -4 22 -11
30 -16 8 -5 22 -12 30 -15 8 -4 29 -15 45 -26 17 -11 36 -23 43 -26 19 -10 14
-24 -8 -24 -11 0 -20 4 -20 9 0 5 -12 11 -27 14 -34 6 -111 33 -135 47 -10 6
-28 10 -40 10 -13 1 -34 7 -48 15 -14 8 -39 14 -56 15 -16 0 -39 7 -50 15 -10
8 -32 15 -49 15 -16 0 -41 7 -55 15 -14 8 -39 14 -56 15 -17 0 -48 7 -67 15
-20 8 -51 15 -70 15 -18 0 -37 4 -43 9 -5 5 -38 14 -74 20 -36 6 -103 18 -150
26 -47 9 -116 20 -155 25 -38 4 -90 13 -115 19 -25 6 -72 11 -105 11 -33 0
-105 7 -159 15 -117 18 -584 21 -683 5 -34 -6 -104 -15 -155 -20 -130 -13
-240 -30 -259 -40 -9 -4 -41 -11 -73 -15 -31 -4 -59 -11 -62 -16 -3 -5 -22 -9
-43 -9 -22 0 -44 -6 -51 -15 -7 -8 -24 -15 -39 -15 -14 0 -39 -7 -55 -15 -15
-8 -38 -15 -50 -15 -12 0 -30 -6 -41 -13 -38 -26 -88 -39 -97 -25 -4 7 -8 815
-8 1795 l0 1782 26 20 c15 12 34 21 43 21 10 0 26 7 37 15 10 8 30 15 44 15
14 0 34 7 44 15 11 8 30 15 42 15 13 0 26 5 29 10 8 13 22 13 30 0z m6755 -11
c30 -12 66 -23 80 -26 14 -3 34 -12 45 -19 11 -8 27 -14 36 -14 9 0 28 -9 43
-21 l26 -20 0 -1789 c0 -984 -4 -1791 -8 -1794 -8 -5 -42 6 -102 31 -55 23
-97 36 -130 40 -19 3 -42 11 -50 18 -8 7 -31 15 -50 18 -19 3 -66 13 -105 22
-38 9 -95 20 -126 24 -31 5 -79 13 -105 19 -177 39 -745 55 -936 28 -59 -9
-133 -16 -165 -16 -32 0 -74 -5 -94 -10 -20 -6 -72 -14 -115 -20 -44 -5 -115
-16 -159 -24 -44 -8 -109 -20 -145 -26 -36 -6 -74 -15 -85 -19 -22 -9 -105
-28 -178 -40 -26 -4 -53 -13 -59 -19 -7 -7 -28 -12 -47 -12 -20 0 -45 -7 -55
-15 -11 -8 -32 -15 -48 -15 -15 0 -42 -6 -60 -14 -18 -8 -62 -23 -98 -35 -93
-29 -133 -42 -152 -52 -23 -12 -38 -11 -38 1 0 6 7 10 15 10 8 0 15 5 15 10 0
6 10 15 23 20 12 6 29 14 37 19 8 5 22 12 30 15 8 3 22 10 30 15 17 11 322
157 360 173 86 35 177 75 202 89 10 5 24 9 32 9 8 0 27 6 43 14 15 8 47 22 71
30 23 9 59 22 80 30 20 8 64 22 97 31 33 9 67 20 76 25 9 5 34 12 55 16 22 3
44 10 49 14 6 4 31 11 57 14 26 4 50 11 53 17 4 5 23 9 43 9 20 0 50 7 66 15
15 8 45 15 66 15 21 0 57 7 80 15 23 8 64 15 89 15 26 0 67 6 92 14 123 40
775 39 901 -1 67 -21 119 -14 135 17 10 20 13 347 13 1581 0 1329 2 1589 14
1589 1 0 26 -9 56 -21z"/>
<path d="M3332 6734 l-22 -15 0 -1074 c0 -963 2 -1075 16 -1089 13 -14 47 -16
213 -16 140 0 200 3 209 12 9 9 12 179 12 702 0 429 4 686 9 681 6 -6 199
-314 431 -685 232 -371 429 -683 438 -692 13 -16 37 -18 213 -18 193 0 198 1
213 22 14 20 16 140 16 1085 0 1050 0 1063 -20 1083 -19 19 -33 20 -206 20
-109 0 -193 -4 -205 -10 -18 -10 -19 -29 -19 -702 0 -591 -2 -690 -14 -678 -8
8 -76 114 -151 235 -636 1017 -712 1137 -728 1147 -7 4 -95 8 -197 8 -152 0
-190 -3 -208 -16z m1688 -1095 l0 -1050 -180 1 c-99 1 -178 5 -175 10 3 4 -2
11 -11 14 -8 3 -12 10 -9 16 3 5 1 10 -5 10 -6 0 -9 4 -5 10 3 5 -3 18 -15 30
-11 11 -20 25 -20 30 0 6 -4 10 -10 10 -5 0 -7 6 -4 14 3 8 -3 19 -15 26 -11
6 -20 14 -19 18 3 14 -16 47 -34 60 -10 7 -16 18 -13 23 4 5 1 9 -4 9 -6 0
-10 3 -10 8 3 19 -2 33 -10 28 -9 -6 -26 22 -23 37 1 4 -2 7 -8 7 -6 0 -9 3
-9 8 3 19 -2 32 -13 30 -7 -2 -14 7 -16 20 -2 12 -8 22 -13 22 -6 0 -8 4 -4 9
3 6 -4 15 -15 21 -11 6 -20 17 -20 25 0 8 -5 15 -11 15 -5 0 -8 4 -4 10 3 5
-4 19 -15 30 -11 11 -18 25 -15 30 4 6 -1 10 -9 10 -10 0 -13 6 -10 15 4 8 2
15 -3 15 -6 0 -18 17 -29 38 -10 20 -25 41 -31 45 -7 4 -13 15 -13 22 0 8 -4
15 -10 15 -5 0 -10 9 -10 21 0 11 -4 18 -9 15 -9 -6 -26 22 -23 37 1 4 -3 7
-8 7 -5 0 -9 3 -9 8 3 19 -2 33 -10 28 -9 -6 -26 22 -23 37 1 4 -3 7 -8 7 -5
0 -9 3 -9 8 3 18 -2 33 -10 28 -7 -5 -33 39 -33 54 1 3 -8 14 -19 26 -10 11
-16 24 -12 27 3 4 1 7 -5 7 -7 0 -12 7 -12 15 0 8 -5 15 -11 15 -5 0 -8 4 -4
10 3 5 -3 18 -15 30 -11 11 -17 20 -12 20 4 0 -2 7 -12 15 -11 8 -17 15 -13
15 4 0 3 9 -3 20 -6 11 -15 18 -21 15 -5 -4 -9 3 -9 14 0 12 -5 21 -11 21 -5
0 -7 4 -4 10 3 5 -3 15 -15 22 -11 7 -20 20 -20 29 0 9 -10 27 -23 41 -13 14
-21 30 -19 36 2 7 -3 12 -12 12 -9 0 -13 6 -10 13 3 8 -2 20 -11 27 -8 7 -15
19 -15 26 0 8 -4 14 -10 14 -5 0 -10 7 -10 15 0 8 -7 15 -15 15 -10 0 -15 -10
-15 -28 0 -16 -3 -32 -7 -36 -4 -4 -6 -26 -5 -49 2 -23 4 -342 5 -709 2 -548
0 -669 -11 -673 -8 -3 -85 -5 -173 -5 l-159 0 0 1050 0 1051 180 -1 c106 -1
178 -5 174 -11 -3 -5 0 -9 6 -9 6 0 8 -5 5 -10 -3 -6 1 -13 9 -16 9 -3 13 -10
11 -15 -3 -4 3 -17 15 -29 11 -11 17 -20 13 -20 -5 0 1 -7 12 -16 11 -8 19
-17 18 -19 -7 -13 -2 -25 9 -22 7 1 14 -8 16 -21 2 -13 8 -20 14 -16 7 5 9 1
5 -9 -4 -11 0 -21 12 -29 11 -6 17 -18 14 -25 -3 -7 0 -13 6 -13 6 0 11 -7 11
-15 0 -8 9 -20 19 -27 10 -6 17 -18 14 -25 -3 -7 0 -13 7 -13 6 0 9 -4 5 -9
-3 -6 4 -15 15 -21 11 -6 20 -20 20 -31 0 -11 5 -17 10 -14 6 3 10 -2 10 -12
0 -10 9 -24 20 -31 12 -7 18 -17 15 -22 -3 -6 -1 -10 5 -10 6 0 9 -4 5 -10 -3
-5 5 -20 17 -32 13 -13 22 -26 21 -30 -2 -5 2 -8 7 -8 5 0 9 -3 9 -7 -3 -20 2
-34 11 -28 5 3 12 -6 16 -20 3 -14 10 -25 16 -25 5 0 7 -4 4 -9 -3 -4 3 -16
14 -26 11 -10 17 -22 14 -26 -3 -5 0 -9 5 -9 6 0 11 -7 11 -15 0 -8 5 -15 11
-15 5 0 8 -4 4 -10 -3 -5 3 -18 15 -30 11 -11 20 -24 20 -30 0 -5 5 -10 11
-10 5 0 8 -4 4 -10 -3 -5 3 -18 15 -30 11 -11 20 -24 20 -30 0 -5 4 -10 10
-10 5 0 9 -3 9 -7 -3 -21 2 -33 16 -33 8 0 15 -8 15 -19 0 -10 11 -30 24 -44
13 -14 21 -28 19 -31 -3 -3 1 -8 10 -12 9 -3 13 -12 11 -19 -3 -8 3 -19 14
-26 11 -7 18 -19 15 -26 -3 -7 0 -13 6 -13 6 0 11 -6 11 -14 0 -8 7 -16 15
-20 8 -3 15 -15 15 -26 0 -12 5 -18 10 -15 6 3 10 -3 10 -14 0 -11 9 -25 20
-31 11 -6 18 -15 15 -21 -4 -5 -1 -9 5 -9 6 0 9 -4 5 -10 -3 -5 5 -20 17 -32
13 -13 22 -26 21 -30 -2 -5 2 -8 7 -8 5 0 9 -3 9 -7 -3 -20 2 -33 13 -30 7 1
14 -8 16 -20 2 -13 8 -23 13 -23 5 0 8 -4 6 -9 -1 -5 3 -11 8 -13 7 -2 11 252
13 747 l2 750 175 -3 175 -3 0 -1050z"/>
<path d="M5856 6734 c-22 -21 -24 -335 -3 -353 9 -7 116 -12 328 -13 l314 -3
2 -900 c3 -832 4 -901 20 -912 12 -9 71 -13 208 -13 173 0 194 2 208 18 16 17
17 95 17 915 l0 897 318 0 c234 0 321 3 330 12 8 8 12 61 12 174 0 134 -3 165
-16 178 -14 14 -106 16 -869 16 -763 0 -855 -2 -869 -16z m875 -44 l819 0 0
-135 0 -135 -327 -2 -328 -3 -3 -912 -2 -913 -165 0 -165 0 0 893 c0 490 -3
902 -6 915 l-6 23 -334 -3 -334 -3 0 144 c0 126 2 142 16 137 9 -3 384 -6 835
-6z"/>
</g>
</svg>
