<?xml version="1.0" standalone="no"?>
<!DOCTYPE svg PUBLIC "-//W3C//DTD SVG 20010904//EN"
 "http://www.w3.org/TR/2001/REC-SVG-20010904/DTD/svg10.dtd">
<svg version="1.0" xmlns="http://www.w3.org/2000/svg"
 width="564.000000pt" height="564.000000pt" viewBox="0 0 564.000000 564.000000"
 preserveAspectRatio="xMidYMid meet">

<g transform="translate(0.000000,564.000000) scale(0.100000,-0.100000)"
fill="#000000" stroke="none">
<path d="M0 5549 c0 -63 3 -88 11 -83 8 4 9 -1 4 -17 -8 -23 -7 -23 24 4 18
15 43 27 56 27 28 0 55 38 55 78 0 15 7 37 15 48 8 10 15 22 15 27 0 4 -40 7
-90 7 l-90 0 0 -91z"/>
<path d="M305 5580 c33 -33 65 -60 71 -60 14 0 114 97 114 111 0 5 -52 9 -122
9 l-122 0 59 -60z"/>
<path d="M650 5633 l-46 -4 11 -67 11 -67 37 1 c20 0 67 1 105 2 l67 2 75 70
75 69 -145 -1 c-80 -1 -165 -3 -190 -5z"/>
<path d="M1793 5620 c-14 -14 -18 -30 -15 -60 5 -51 24 -60 128 -60 114 0 112
20 -12 118 -35 27 -77 28 -101 2z"/>
<path d="M2256 5626 c3 -7 33 -38 68 -69 l62 -55 112 0 112 -1 1 27 c1 15 0
37 -1 49 -1 12 4 31 10 42 11 21 9 21 -179 21 -157 0 -189 -2 -185 -14z"/>
<path d="M2770 5625 c14 -17 40 -20 40 -6 0 5 8 12 18 14 9 3 -3 5 -27 6 -38
1 -42 -1 -31 -14z"/>
<path d="M2973 5622 c10 -11 17 -35 17 -60 0 -22 5 -44 10 -47 6 -4 61 -1 123
6 80 8 116 16 127 28 21 23 60 79 60 86 0 3 -79 5 -177 5 -170 0 -176 -1 -160
-18z"/>
<path d="M3715 5626 c-11 -7 -32 -16 -46 -19 -25 -6 -54 -49 -42 -61 4 -3 43
-6 89 -6 l82 0 4 35 c6 56 -40 84 -87 51z"/>
<path d="M4263 5632 c-19 -12 -31 -54 -26 -89 l5 -33 94 0 c52 0 94 4 94 9 0
14 -125 121 -141 121 -8 0 -19 -4 -26 -8z"/>
<path d="M4771 5589 c23 -27 49 -54 59 -59 11 -6 66 -10 124 -10 l106 0 0 44
c0 24 3 51 6 60 5 14 -14 16 -166 15 l-171 0 42 -50z"/>
<path d="M5200 5631 c0 -4 23 -29 50 -54 28 -25 50 -51 50 -57 0 -7 4 -10 9
-8 16 6 131 110 131 119 0 5 -54 9 -120 9 -66 0 -120 -4 -120 -9z"/>
<path d="M5495 5598 c15 -103 13 -99 52 -92 27 5 41 2 64 -15 l29 -22 0 75 0
74 -50 11 c-28 6 -62 11 -76 11 -25 0 -25 -2 -19 -42z"/>
<path d="M1296 5564 c-31 -37 -55 -68 -53 -71 10 -9 159 11 171 23 19 19 7 72
-22 94 -13 11 -28 20 -32 20 -4 0 -33 -30 -64 -66z"/>
<path d="M4548 5513 c-40 -3 -58 -8 -58 -17 0 -8 43 -60 96 -117 53 -57 98
-105 99 -107 6 -7 305 -6 303 0 -3 9 -132 169 -168 209 -23 25 -32 28 -120 31
-52 3 -121 3 -152 1z"/>
<path d="M3193 5475 c-39 -36 -183 -198 -183 -205 0 -3 71 -4 158 -2 l157 3
66 67 c87 89 115 130 100 145 -7 7 -62 14 -139 17 l-127 5 -32 -30z"/>
<path d="M1641 5471 c-12 -16 -21 -33 -21 -38 0 -9 129 -132 131 -124 1 3 0
35 -1 71 -2 36 -4 76 -4 90 -1 22 -6 25 -43 27 -36 2 -45 -1 -62 -26z"/>
<path d="M2060 5492 c0 -12 35 -57 91 -117 20 -22 54 -59 73 -82 l37 -41 159
-1 c116 -1 160 2 160 10 0 6 -26 38 -57 70 -32 31 -80 80 -106 108 -45 47 -52
51 -96 51 -26 0 -96 3 -154 7 -74 4 -107 3 -107 -5z"/>
<path d="M3846 5439 c-12 -119 -13 -117 42 -73 84 69 83 66 47 107 -16 18 -34
27 -53 27 -28 0 -29 -2 -36 -61z"/>
<path d="M195 5480 c-31 -3 -50 -10 -49 -17 1 -7 2 -55 3 -106 l1 -94 103 5
c56 2 104 6 107 9 2 2 6 49 8 104 4 91 3 99 -14 99 -11 1 -39 2 -64 3 -25 2
-67 0 -95 -3z"/>
<path d="M797 5416 c-115 -120 -150 -165 -135 -171 7 -3 77 -6 156 -7 l143 -3
-80 -83 c-45 -46 -81 -87 -81 -92 0 -4 16 -19 34 -34 31 -23 35 -32 38 -79 l3
-52 52 -5 c39 -4 60 -13 81 -33 15 -15 34 -27 40 -27 17 0 98 76 132 122 l28
38 7 -145 c4 -80 9 -145 11 -145 2 0 49 46 104 103 l99 102 1 85 c1 47 2 120
3 163 1 42 -1 77 -4 77 -3 0 -53 -49 -112 -109 -59 -59 -107 -103 -108 -97 -5
63 -11 120 -17 161 l-7 50 -110 5 -110 5 52 55 c100 105 163 175 163 182 0 4
-71 7 -157 7 l-158 -1 -68 -72z"/>
<path d="M1453 5483 c-9 -3 -13 -34 -13 -105 l0 -100 68 72 c37 40 68 76 70
80 1 3 -9 19 -22 33 -24 26 -68 35 -103 20z"/>
<path d="M4100 5473 c-18 -7 -50 -39 -49 -50 0 -8 104 -94 121 -101 10 -4 9
93 -1 128 -7 25 -39 36 -71 23z"/>
<path d="M5330 5413 c0 -33 5 -55 15 -63 8 -7 15 -17 15 -22 0 -5 -7 -16 -15
-24 -16 -16 -20 -43 -7 -45 4 0 16 -2 27 -4 11 -1 50 -6 86 -9 l66 -6 7 52 c9
78 7 146 -4 153 -5 3 -50 8 -100 12 l-90 6 0 -50z"/>
<path d="M0 5260 c0 -80 4 -130 10 -130 6 0 10 3 10 8 0 4 15 23 33 42 54 57
61 76 40 109 -21 34 -80 101 -88 101 -3 0 -5 -58 -5 -130z"/>
<path d="M5622 5308 c-7 -7 -12 -20 -12 -30 0 -11 -12 -29 -27 -42 l-27 -23
21 -29 c12 -16 30 -38 42 -48 l21 -19 0 101 c0 56 -1 102 -3 102 -2 0 -8 -5
-15 -12z"/>
<path d="M4428 5161 c-1 -58 -1 -117 0 -131 1 -16 27 -50 76 -99 l76 -75 34
33 c30 29 43 34 86 35 27 1 50 3 51 6 0 3 2 25 5 49 3 30 14 54 35 79 l31 35
-39 40 c-101 107 -126 127 -157 127 -17 0 -68 2 -113 4 l-83 4 -2 -107z"/>
<path d="M3302 5244 c-15 -6 -55 -43 -90 -83 l-64 -71 36 -41 c27 -32 36 -52
38 -88 l3 -46 46 -3 c36 -2 56 -11 87 -38 l41 -35 37 40 c20 23 53 58 73 78
57 57 59 66 49 183 -5 57 -10 105 -11 106 -9 9 -224 7 -245 -2z"/>
<path d="M2654 5202 c26 -26 55 -59 64 -74 30 -50 61 -45 109 19 33 44 72 83
84 83 5 0 9 4 9 9 0 4 -70 9 -157 9 l-156 1 47 -47z"/>
<path d="M3690 5141 l-113 -110 -4 -126 c-5 -124 1 -195 16 -195 4 0 55 45
113 100 l105 100 8 157 c4 87 7 162 7 168 -1 26 -28 7 -132 -94z"/>
<path d="M434 5230 c-53 -12 -55 -15 -52 -113 2 -71 6 -92 17 -92 12 0 187
202 179 206 -11 5 -119 4 -144 -1z"/>
<path d="M1777 5218 c-5 -18 -3 -177 2 -223 0 -5 -2 -26 -5 -45 -5 -34 -2 -39
101 -138 71 -70 111 -102 121 -98 12 5 15 22 14 83 0 43 2 107 5 143 l6 65
-113 118 c-62 64 -116 117 -119 117 -4 0 -9 -10 -12 -22z"/>
<path d="M2200 5235 c-8 -2 -50 -7 -92 -10 l-78 -7 0 -123 0 -123 33 -19 c17
-11 56 -41 84 -67 l53 -48 31 26 c22 19 42 26 74 26 48 0 55 9 55 68 0 28 9
47 35 76 19 22 35 43 35 47 0 3 -15 18 -32 32 -18 13 -55 46 -82 71 -46 44
-81 59 -116 51z"/>
<path d="M5094 5225 c-7 -18 7 -49 39 -87 81 -93 108 -120 113 -116 3 3 8 47
11 96 7 101 13 92 -72 106 -16 3 -42 8 -57 12 -21 5 -29 2 -34 -11z"/>
<path d="M4186 5203 c-4 -9 -9 -72 -13 -140 l-6 -123 59 -58 c32 -32 83 -86
113 -120 30 -34 58 -59 63 -56 4 3 8 79 8 169 l0 163 -97 91 c-53 50 -102 91
-109 91 -6 0 -15 -7 -18 -17z"/>
<path d="M3931 5013 c-27 -27 -61 -59 -75 -71 -35 -32 -47 -83 -45 -191 l2
-91 53 0 c48 0 59 -4 93 -35 l39 -36 37 36 c21 19 46 35 56 35 10 0 23 8 29
18 8 12 13 13 16 5 3 -7 13 -13 21 -13 14 0 15 16 11 116 l-5 117 -84 78 c-46
43 -87 78 -91 79 -4 0 -30 -21 -57 -47z"/>
<path d="M1517 4971 l-79 -77 -1 -115 -2 -114 52 -5 c39 -4 60 -13 81 -33 34
-33 37 -33 77 -3 22 17 48 26 81 28 l49 3 3 120 3 120 -82 77 c-44 43 -86 78
-92 77 -7 0 -47 -36 -90 -78z"/>
<path d="M2750 5022 c0 -4 -29 -38 -65 -75 -36 -37 -65 -72 -65 -76 0 -5 15
-20 33 -34 17 -14 52 -44 77 -66 25 -23 47 -41 50 -41 8 0 153 161 148 165
-17 18 -78 52 -78 45 0 -6 -5 -10 -11 -10 -6 0 -8 8 -5 18 4 12 -5 28 -28 50
-33 31 -56 41 -56 24z m-33 -98 c-3 -3 -12 -4 -19 -1 -8 3 -5 6 6 6 11 1 17
-2 13 -5z"/>
<path d="M0 4820 c0 -131 3 -199 10 -195 5 3 10 15 10 26 0 11 4 18 8 15 4 -2
31 17 59 43 l51 47 -5 110 c-2 60 -6 114 -8 120 -2 7 -23 14 -47 16 -24 3 -51
8 -60 12 -17 8 -18 -5 -18 -194z"/>
<path d="M5610 4986 c-15 -17 -36 -26 -64 -28 -47 -3 -43 12 -31 -151 7 -86 8
-89 46 -124 86 -79 79 -90 79 131 0 108 -1 196 -3 196 -2 0 -14 -11 -27 -24z"/>
<path d="M5278 4944 c-3 -5 -6 -83 -7 -173 l-1 -164 82 -83 c46 -46 90 -94 99
-106 10 -13 21 -19 25 -15 4 4 10 76 12 160 l4 152 -39 40 c-21 22 -50 56 -65
75 -53 70 -105 123 -110 114z"/>
<path d="M326 4925 c-9 -9 -16 -14 -16 -10 0 5 -62 -56 -112 -111 -10 -11 -29
-30 -43 -44 -25 -24 -25 -27 -25 -177 0 -88 4 -154 10 -158 5 -3 59 43 120
104 l111 109 -3 148 c-3 152 -9 172 -42 139z"/>
<path d="M4801 4871 c-13 -23 -15 -88 -3 -94 4 -3 25 -2 47 2 38 6 40 8 46 51
4 25 6 46 5 46 0 1 -20 5 -43 9 -35 5 -43 4 -52 -14z"/>
<path d="M740 4808 l0 -58 55 0 55 0 0 54 0 54 -55 4 -55 3 0 -57z"/>
<path d="M2981 4850 c-7 -12 -7 -76 -2 -182 1 -13 8 -16 39 -12 20 3 68 6 106
7 l69 2 -7 74 c-3 41 -6 87 -6 103 l0 29 -96 -3 c-73 -2 -98 -7 -103 -18z"/>
<path d="M2450 4851 l-45 -6 -2 -103 -2 -103 102 7 c56 4 104 10 107 14 3 5 3
50 0 101 l-5 94 -55 1 c-30 1 -75 -1 -100 -5z"/>
<path d="M461 4729 l-81 -84 0 -115 c0 -63 4 -119 8 -125 4 -5 61 -11 127 -13
l119 -2 68 67 c37 37 68 73 68 80 0 7 -14 28 -30 47 -27 31 -30 41 -28 88 l3
53 -47 5 c-38 5 -56 14 -87 44 l-39 38 -81 -83z"/>
<path d="M5055 4778 c-29 -25 -52 -34 -90 -38 l-50 -5 -3 -44 c-2 -31 -12 -56
-33 -82 -16 -20 -29 -41 -29 -47 0 -5 37 -45 83 -88 l82 -80 109 3 c60 1 111
4 113 7 3 2 7 58 9 123 l5 118 -78 83 -78 83 -40 -33z"/>
<path d="M2747 4660 c-24 -21 -45 -30 -69 -30 -44 0 -58 -15 -58 -63 0 -31 -6
-44 -30 -65 -16 -15 -30 -30 -30 -35 0 -4 13 -25 29 -45 18 -23 31 -55 36 -84
l6 -48 48 0 c35 0 53 -5 66 -20 28 -30 50 -33 92 -9 21 13 58 25 83 28 45 6
45 6 53 55 4 28 19 62 33 78 l24 30 -29 41 c-17 25 -33 62 -37 90 l-6 47 -47
0 c-36 1 -53 7 -81 30 -19 17 -38 30 -42 30 -4 0 -23 -13 -41 -30z"/>
<path d="M4410 4547 l0 -103 100 -2 c55 -1 100 0 100 4 0 3 -13 19 -29 35 -16
16 -58 61 -92 99 -34 39 -66 70 -70 70 -5 0 -9 -46 -9 -103z"/>
<path d="M3147 4551 c-37 -38 -67 -74 -67 -79 0 -6 33 -43 73 -82 l72 -71 67
73 c37 40 67 80 68 89 0 13 -117 128 -139 137 -4 1 -37 -29 -74 -67z"/>
<path d="M3514 4579 c-14 -23 -42 -57 -62 -75 l-36 -33 24 -26 c18 -19 33 -25
66 -25 l43 0 3 100 c2 55 0 100 -4 100 -4 0 -20 -19 -34 -41z"/>
<path d="M1097 4512 c-42 -42 -77 -83 -77 -90 0 -9 25 -12 89 -12 101 0 101 0
101 83 0 63 -9 97 -24 97 -6 0 -46 -35 -89 -78z"/>
<path d="M2035 4569 c-3 -9 -4 -56 -3 -105 l3 -89 51 -3 c48 -3 54 0 73 27 12
16 21 33 21 38 0 5 -31 40 -70 78 -51 51 -71 65 -75 54z"/>
<path d="M2318 4514 c-63 -61 -79 -84 -60 -84 4 0 25 -17 47 -38 70 -66 82
-72 115 -55 29 14 110 103 110 120 0 11 -125 123 -137 123 -4 0 -38 -30 -75
-66z"/>
<path d="M3926 4491 l-69 -70 25 -33 c31 -41 97 -108 107 -108 6 0 13 6 107
87 l48 43 -46 47 c-25 27 -56 60 -69 76 -12 15 -25 27 -29 27 -3 0 -37 -31
-74 -69z"/>
<path d="M1552 4476 c-40 -40 -72 -77 -72 -80 0 -11 123 -146 133 -146 10 0
136 120 147 141 7 12 -9 33 -63 87 l-73 72 -72 -74z"/>
<path d="M4680 4399 c0 -8 93 -118 175 -207 7 -8 28 -16 46 -18 91 -10 293
-24 297 -20 8 9 -210 244 -231 250 -40 11 -287 7 -287 -5z"/>
<path d="M4243 4387 l-72 -10 6 -86 c6 -93 15 -115 45 -105 10 3 46 5 78 5 74
0 80 9 80 111 0 104 1 104 -137 85z"/>
<path d="M1797 4283 c-3 -76 -2 -110 6 -115 7 -4 58 -8 113 -8 l101 0 5 108
c3 59 3 110 1 115 -2 4 -53 7 -112 7 l-108 0 -6 -107z"/>
<path d="M3593 4374 c-4 -10 1 -151 7 -193 0 -2 24 -1 53 3 64 8 74 8 113 0
18 -3 34 -2 37 3 2 4 6 51 8 103 l4 95 -109 0 c-79 1 -109 -2 -113 -11z"/>
<path d="M506 4271 c-59 -60 -104 -111 -100 -114 5 -3 74 -6 154 -6 l145 -1
70 64 c39 35 89 80 113 101 23 21 41 42 39 48 -1 5 -53 11 -115 13 -86 3 -112
1 -112 -8 0 -8 -3 -9 -8 -3 -4 6 -23 11 -42 12 -33 2 -44 -6 -144 -106z"/>
<path d="M1237 4323 c-3 -29 -3 -78 0 -109 l6 -57 95 7 c52 4 99 9 103 12 5 3
9 49 9 103 l0 99 -104 -2 -104 -1 -5 -52z"/>
<path d="M57 4317 c-45 -41 -57 -59 -57 -83 0 -34 39 -64 84 -64 23 0 26 4 27
38 1 20 1 40 1 43 -1 4 2 30 7 58 4 28 5 54 1 56 -4 2 -32 -19 -63 -48z"/>
<path d="M5492 4253 l3 -98 42 2 c45 2 93 27 93 49 0 14 -119 144 -132 144 -5
0 -7 -44 -6 -97z"/>
<path d="M3027 4292 c-18 -4 -18 -27 -1 -169 l5 -43 83 0 c99 0 123 12 111 56
-4 16 -8 54 -9 86 0 31 -5 60 -9 65 -8 8 -144 12 -180 5z"/>
<path d="M2480 4262 c-36 -2 -68 -6 -72 -10 -12 -12 12 -166 28 -182 13 -13
16 -13 24 0 5 8 10 10 10 4 0 -13 119 1 135 17 5 5 10 46 10 90 0 72 -2 79
-20 80 -11 0 -27 1 -35 2 -8 1 -44 1 -80 -1z"/>
<path d="M1610 4190 c-21 -18 -47 -29 -65 -30 -64 -1 -73 -8 -80 -63 -4 -31
-17 -65 -32 -85 l-24 -32 30 -39 c21 -26 31 -50 31 -72 0 -47 8 -55 62 -63 30
-5 58 -17 79 -36 l33 -28 39 30 c25 20 54 32 83 36 l44 5 0 43 c0 36 6 51 36
84 20 22 31 40 25 40 -18 0 -46 62 -51 114 l-5 49 -50 4 c-43 3 -54 9 -78 38
-16 19 -32 35 -36 35 -4 0 -22 -13 -41 -30z"/>
<path d="M2760 4182 c-14 -19 -43 -54 -64 -78 l-39 -45 23 -24 c13 -14 30 -25
38 -25 7 0 32 -18 54 -40 23 -22 45 -40 49 -40 16 0 119 125 119 145 0 21 -32
52 -120 116 l-36 26 -24 -35z"/>
<path d="M3965 4180 c-3 -6 1 -7 9 -4 18 7 21 14 7 14 -6 0 -13 -4 -16 -10z"/>
<path d="M4650 4119 c0 -48 -4 -57 -37 -91 l-37 -38 36 -37 c31 -32 37 -46 40
-88 l3 -50 115 2 114 3 78 77 c43 43 78 83 78 89 0 7 -36 50 -79 96 l-80 84
-115 3 -116 3 0 -53z"/>
<path d="M658 4076 c-43 -45 -78 -87 -78 -92 0 -5 37 -46 83 -90 l82 -81 90 3
c50 2 100 4 113 4 20 0 22 5 22 49 0 39 5 54 30 82 16 19 30 39 29 44 0 6 -13
26 -29 45 -22 25 -30 45 -30 72 l0 38 -59 0 c-32 0 -85 2 -117 4 l-59 5 -77
-83z"/>
<path d="M160 4105 c0 -38 6 -54 29 -81 l29 -33 68 60 c37 32 71 59 75 59 5 0
9 4 9 9 0 5 -30 12 -67 15 -38 4 -85 9 -105 12 l-38 6 0 -47z"/>
<path d="M3562 4109 c-23 -23 -42 -45 -42 -49 0 -4 -9 -10 -20 -13 -14 -3 -20
-14 -20 -32 0 -20 16 -42 62 -86 l63 -59 67 67 c38 37 68 71 68 75 0 5 -11 13
-25 18 -14 5 -25 15 -25 23 0 7 -20 32 -43 55 l-44 43 -41 -42z"/>
<path d="M5285 4132 c-16 -4 -6 -17 60 -78 l80 -74 24 24 c17 17 25 39 29 75
4 48 3 51 -19 52 -114 4 -157 5 -174 1z"/>
<path d="M1216 4113 c-4 -5 -12 -9 -17 -9 -5 -1 -13 -2 -18 -3 -5 0 -13 -10
-16 -22 -4 -11 -9 -18 -13 -15 -8 9 -42 -25 -36 -36 3 -5 -1 -17 -11 -28 -15
-17 -12 -21 52 -84 45 -44 69 -61 71 -51 5 21 22 19 22 -2 0 -12 22 4 65 47
36 35 65 72 65 81 0 9 -20 34 -45 57 -76 69 -101 83 -119 65z"/>
<path d="M2004 4093 c-105 -112 -118 -131 -100 -147 7 -6 37 -35 68 -64 52
-50 57 -53 79 -40 29 15 139 119 139 130 0 9 -124 129 -146 141 -9 5 -22 -1
-40 -20z"/>
<path d="M4386 4091 c-9 -10 -39 -34 -66 -52 -28 -19 -50 -38 -50 -42 0 -13
124 -155 135 -156 12 -1 135 114 135 126 0 11 -119 143 -129 143 -5 0 -16 -8
-25 -19z"/>
<path d="M3259 4050 c-1 -5 -2 -14 -3 -19 0 -5 -4 -13 -8 -17 -5 -4 -8 -45 -8
-92 0 -98 -4 -98 92 11 l62 69 -34 29 c-35 28 -99 40 -101 19z"/>
<path d="M2276 4013 c-14 -15 -26 -35 -26 -44 0 -9 21 -33 48 -52 26 -20 58
-47 71 -59 l23 -23 -7 35 c-4 19 -9 62 -11 94 -2 32 -5 60 -6 61 -2 2 -17 6
-35 9 -26 6 -35 3 -57 -21z"/>
<path d="M4168 4012 c-10 -2 -18 -8 -18 -13 0 -5 5 -8 12 -6 6 1 14 -6 16 -17
3 -13 0 -16 -9 -11 -8 6 -10 4 -4 -4 11 -19 27 2 23 31 -2 16 -8 22 -20 20z"/>
<path d="M177 3942 c-19 -20 -27 -39 -27 -63 0 -59 7 -63 106 -55 49 4 91 9
93 12 5 4 -130 133 -140 134 -3 0 -17 -13 -32 -28z"/>
<path d="M5346 3900 c-37 -35 -66 -66 -66 -70 0 -9 155 -21 175 -14 10 4 15
20 15 48 0 34 -6 48 -29 70 l-30 29 -65 -63z"/>
<path d="M3995 3860 c-3 -6 1 -7 9 -4 18 7 21 14 7 14 -6 0 -13 -4 -16 -10z"/>
<path d="M5200 3816 c-3 -3 -75 -6 -160 -8 l-154 -3 -61 -65 c-121 -129 -147
-159 -141 -168 3 -5 71 -7 153 -4 l148 4 113 114 c63 63 112 119 110 125 -2 5
-6 8 -8 5z"/>
<path d="M30 3797 c-18 -9 -26 -22 -28 -46 -3 -30 4 -41 59 -97 34 -35 66 -61
71 -58 5 3 6 9 4 13 -3 4 -6 48 -7 97 -1 53 -6 92 -13 96 -17 12 -58 9 -86 -5z"/>
<path d="M516 3690 l112 -111 151 5 c84 2 155 6 157 9 3 3 -18 27 -47 53 -28
27 -73 70 -99 95 -55 54 -67 56 -257 58 l-128 1 111 -110z"/>
<path d="M1820 3790 c-4 -3 -10 -51 -11 -107 l-4 -102 95 -3 c73 -2 98 0 108
11 8 10 12 48 12 108 0 82 -2 93 -17 93 -10 1 -53 2 -96 3 -44 1 -83 0 -87 -3z"/>
<path d="M3618 3793 c-14 -4 -16 -15 -13 -76 2 -40 4 -82 4 -94 1 -19 7 -23
32 -23 17 0 28 4 24 10 -8 13 -8 13 40 -5 22 -8 57 -14 77 -15 l37 0 3 93 c2
50 2 97 0 102 -2 10 -172 17 -204 8z"/>
<path d="M5495 3787 c-2 -7 -6 -47 -9 -89 -5 -70 -4 -78 12 -78 9 1 39 21 66
46 l50 46 -18 33 c-14 25 -28 36 -58 43 -29 8 -40 7 -43 -1z"/>
<path d="M1250 3686 l0 -106 104 0 c120 0 112 -7 115 107 3 87 2 88 -126 98
l-93 7 0 -106z"/>
<path d="M4187 3743 c-2 -5 -1 -46 2 -93 l6 -85 90 4 c50 1 91 4 92 5 2 2 6
145 4 164 -1 9 -27 12 -95 12 -52 0 -97 -3 -99 -7z"/>
<path d="M3917 3641 c-37 -36 -67 -70 -67 -75 0 -6 26 -34 58 -63 96 -90 89
-85 110 -65 10 9 42 39 71 66 51 47 52 49 34 69 -10 12 -29 30 -42 42 -14 11
-41 36 -60 56 l-36 36 -68 -66z"/>
<path d="M1589 3654 c-59 -50 -79 -72 -79 -88 0 -13 116 -136 129 -136 12 0
131 131 131 144 0 9 -116 126 -124 126 -1 0 -27 -21 -57 -46z"/>
<path d="M539 3575 c-3 -2 -37 -5 -77 -6 -40 -1 -76 -7 -80 -13 -9 -15 -3
-182 9 -227 6 -26 28 -53 78 -98 38 -33 73 -61 76 -61 4 0 25 16 46 35 32 29
47 35 84 35 l45 0 0 48 c0 36 7 57 25 82 33 45 32 66 -7 98 -17 15 -53 46 -78
70 -37 32 -55 42 -82 42 -19 0 -37 -2 -39 -5z"/>
<path d="M5359 3456 l-104 -114 7 -113 c3 -63 7 -136 7 -163 l1 -50 87 94
c130 139 126 132 127 214 2 135 -4 246 -12 246 -5 0 -56 -51 -113 -114z"/>
<path d="M137 3428 c-3 -73 -8 -142 -12 -154 -5 -17 13 -40 100 -128 117 -118
139 -127 141 -61 1 22 2 88 4 147 l2 107 -103 110 c-57 61 -109 111 -115 111
-8 0 -13 -43 -17 -132z"/>
<path d="M5083 3550 l-93 -5 -70 -70 c-38 -38 -70 -74 -70 -80 0 -6 14 -24 30
-40 20 -20 30 -39 30 -59 0 -63 9 -76 51 -76 31 0 47 -8 80 -37 40 -36 42 -37
55 -18 7 11 17 23 21 26 4 4 34 31 65 60 l58 54 -1 117 c0 65 -4 120 -7 122
-18 9 -65 11 -149 6z"/>
<path d="M1010 3544 c0 -14 125 -134 140 -134 43 0 80 91 48 117 -14 11 -188
27 -188 17z"/>
<path d="M4453 3532 c-32 -3 -33 -5 -33 -46 0 -33 6 -48 28 -69 l28 -27 57 59
c31 32 57 66 57 75 0 16 -30 18 -137 8z"/>
<path d="M3912 3307 c-40 -40 -72 -76 -72 -80 0 -9 53 -9 143 0 l67 6 0 41 c0
34 -6 48 -33 74 l-33 32 -72 -73z"/>
<path d="M1586 3345 c-28 -26 -36 -82 -13 -90 30 -10 167 -10 167 0 0 6 -21
29 -47 50 -81 69 -77 67 -107 40z"/>
<path d="M4396 3296 c-36 -38 -66 -73 -66 -80 0 -6 29 -41 65 -76 l65 -65 71
71 70 70 -69 74 -70 74 -66 -68z"/>
<path d="M5616 3346 c-11 -6 -29 -19 -40 -28 -12 -9 -32 -25 -45 -35 -20 -16
-25 -34 -36 -123 -7 -58 -11 -108 -9 -111 2 -4 23 -9 46 -12 31 -4 51 -14 71
-37 16 -18 30 -30 33 -27 2 2 3 90 2 194 -3 184 -4 190 -22 179z"/>
<path d="M0 3180 c0 -192 -7 -178 84 -163 l39 6 -6 121 -5 121 -49 42 c-26 24
-51 43 -55 43 -5 0 -8 -76 -8 -170z"/>
<path d="M1079 3298 c-60 -74 -72 -97 -57 -111 30 -29 131 -107 138 -107 10 0
103 107 118 136 9 18 3 26 -55 72 -36 29 -76 52 -87 52 -13 0 -35 -17 -57 -42z"/>
<path d="M1314 3201 c-9 -9 -4 -125 7 -161 l11 -38 87 -4 c47 -3 88 -4 89 -2
8 6 14 164 8 188 l-7 27 -95 -3 c-52 -2 -97 -5 -100 -7z"/>
<path d="M777 3192 c-16 -3 -17 -12 -12 -95 4 -51 10 -96 15 -101 9 -9 175 -5
185 6 6 6 9 97 6 181 -1 16 -10 18 -88 16 -49 -2 -96 -4 -106 -7z"/>
<path d="M4079 3160 c0 -19 -2 -58 -4 -87 -3 -34 0 -55 9 -62 8 -7 49 -10 102
-9 l89 3 2 93 3 92 -58 1 c-31 1 -76 2 -99 3 -43 1 -43 1 -44 -34z"/>
<path d="M4666 3158 c-8 -44 -1 -157 10 -168 5 -4 47 -5 94 -2 l85 7 0 95 0
95 -91 3 -92 3 -6 -33z"/>
<path d="M2650 3150 c0 -5 5 -44 11 -85 l12 -77 36 7 c20 3 41 12 47 18 17 17
27 57 16 57 -6 0 -29 20 -53 45 -40 42 -69 57 -69 35z"/>
<path d="M2880 3104 l-54 -54 20 -27 c17 -22 30 -29 66 -31 l46 -3 0 68 c1 70
-4 104 -16 102 -4 -1 -32 -25 -62 -55z"/>
<path d="M1110 2993 c-24 -19 -46 -28 -86 -31 -46 -4 -54 -7 -55 -26 -3 -51
-7 -65 -29 -94 -13 -18 -27 -32 -32 -32 -17 0 -7 -19 32 -61 37 -40 39 -46 33
-88 -3 -26 -3 -43 1 -39 12 10 79 -12 114 -38 17 -14 32 -22 32 -18 0 3 6 1
13 -5 10 -8 20 -4 42 19 18 19 43 33 67 36 46 8 72 35 66 68 -3 14 -1 23 3 20
5 -3 9 0 9 6 0 7 11 26 25 42 l25 30 -35 48 c-19 26 -35 60 -35 74 0 16 -4 25
-10 21 -6 -4 -8 -12 -4 -18 3 -7 0 -5 -8 4 -7 9 -20 19 -28 22 -9 4 -6 5 7 3
13 -2 25 0 28 4 3 5 -13 11 -34 15 -27 4 -47 16 -63 36 -28 36 -38 36 -78 2z"/>
<path d="M2510 2946 c-86 -15 -89 -32 -16 -85 30 -23 61 -41 69 -41 22 0 47
64 40 104 -3 20 -11 36 -17 35 -6 -1 -40 -6 -76 -13z"/>
<path d="M3086 2949 c-69 -11 -81 -25 -61 -72 26 -63 43 -63 103 3 28 32 52
63 52 69 0 12 -23 12 -94 0z"/>
<path d="M385 2941 c-3 -5 0 -13 6 -17 7 -4 7 -9 1 -13 -5 -3 -11 -54 -14
-113 -4 -88 -2 -108 9 -108 16 0 133 109 133 123 0 5 -22 30 -48 56 -27 25
-51 54 -55 64 -7 19 -22 23 -32 8z"/>
<path d="M4835 2914 c-22 -20 -55 -49 -74 -66 l-34 -30 44 -45 c69 -73 93 -92
110 -93 19 0 129 114 129 133 0 12 -120 137 -130 137 -3 0 -23 -16 -45 -36z"/>
<path d="M5162 2887 l-62 -63 61 -72 c82 -97 90 -90 78 72 -4 65 -10 120 -12
122 -2 2 -31 -25 -65 -59z"/>
<path d="M701 2898 c-17 -24 -47 -56 -66 -72 -19 -16 -35 -34 -35 -39 0 -5 25
-32 55 -61 30 -28 55 -57 55 -64 0 -6 9 -12 19 -12 19 0 146 131 146 150 0 11
-125 140 -136 140 -4 0 -21 -19 -38 -42z"/>
<path d="M4026 2909 c-14 -17 -26 -34 -26 -37 0 -4 -17 -24 -36 -45 l-37 -39
64 -58 c35 -33 69 -59 75 -60 11 0 53 43 113 115 l24 28 -67 64 c-37 35 -71
63 -76 63 -4 0 -20 -14 -34 -31z"/>
<path d="M1455 2874 c-30 -31 -55 -62 -55 -69 0 -16 126 -130 143 -130 15 0
117 110 117 126 0 16 -118 129 -135 129 -8 0 -39 -25 -70 -56z"/>
<path d="M5621 2846 c-8 -10 -8 -20 4 -42 l15 -29 0 43 c0 46 -2 49 -19 28z"/>
<path d="M0 2803 c0 -13 5 -23 10 -23 13 0 13 11 0 30 -8 12 -10 11 -10 -7z"/>
<path d="M3030 2734 c-22 -26 -30 -43 -26 -58 3 -11 6 -26 6 -32 0 -7 25 -15
58 -18 31 -4 74 -9 95 -12 23 -4 37 -2 37 5 0 6 -24 34 -53 63 -29 29 -56 61
-60 71 -9 25 -21 21 -57 -19z"/>
<path d="M2476 2684 l-59 -64 30 0 c16 0 58 3 92 6 l62 7 -3 50 c-3 41 -7 51
-26 58 -13 5 -26 8 -30 8 -4 -1 -34 -30 -66 -65z"/>
<path d="M5621 2637 c-9 -12 -29 -17 -66 -17 l-53 0 4 -104 5 -105 62 -60 62
-60 3 90 c1 49 1 130 0 181 -3 79 -5 89 -17 75z"/>
<path d="M0 2455 l0 -180 63 65 63 65 -6 110 -5 110 -57 5 -58 5 0 -180z"/>
<path d="M4656 2618 c-3 -7 -7 -52 -9 -100 l-5 -87 72 -1 c39 0 89 -2 111 -3
l40 -2 0 88 c0 49 -3 94 -7 100 -3 6 -48 12 -102 15 -75 3 -97 1 -100 -10z"/>
<path d="M241 2498 l-114 -118 6 -135 c10 -199 7 -197 135 -71 l106 105 -3
163 c-1 90 -5 165 -9 169 -4 3 -58 -48 -121 -113z"/>
<path d="M1326 2613 c-8 -8 -8 -186 0 -207 5 -13 23 -16 93 -16 47 0 91 4 98
8 6 4 12 18 12 32 1 14 4 53 7 88 4 38 2 68 -5 75 -6 8 -42 14 -98 16 -48 1
-90 4 -94 6 -3 3 -9 2 -13 -2z"/>
<path d="M4130 2602 c0 -12 -3 -12 -14 -2 -13 10 -14 6 -11 -27 1 -21 3 -66 4
-100 l1 -63 78 0 c42 0 88 3 101 7 23 6 24 7 17 92 -3 47 -11 90 -17 96 -5 5
-44 10 -85 10 -57 1 -74 -3 -74 -13z"/>
<path d="M796 2595 c-4 -11 -13 -15 -26 -12 -11 3 -20 4 -21 4 -6 -19 -25
-164 -22 -169 2 -5 51 -8 108 -8 l105 0 -4 30 c-2 17 0 33 5 36 5 3 9 27 9 54
0 58 -8 65 -91 75 -48 6 -57 4 -63 -10z"/>
<path d="M2850 2575 l-34 -35 69 -70 c38 -38 73 -66 78 -61 4 4 6 50 5 102
l-3 94 -40 3 c-35 3 -45 -2 -75 -33z"/>
<path d="M5250 2453 l0 -160 63 -58 c34 -32 88 -84 120 -114 l57 -55 0 160 0
161 -110 109 c-61 60 -115 111 -120 112 -6 2 -10 -58 -10 -155z"/>
<path d="M2637 2593 c-10 -10 -8 -213 2 -213 8 0 108 118 125 147 11 19 -55
73 -90 73 -17 0 -34 -3 -37 -7z"/>
<path d="M1071 2461 l-74 -70 64 -75 c35 -41 69 -75 74 -75 6 -1 28 17 50 39
22 21 53 50 69 63 l29 24 -34 47 c-47 65 -90 116 -98 116 -4 0 -40 -31 -80
-69z"/>
<path d="M4455 2506 c-6 -8 -32 -39 -58 -69 l-48 -55 18 -29 c10 -16 39 -48
64 -71 l46 -42 67 71 c37 39 66 74 64 77 -4 9 -134 132 -139 132 -2 0 -9 -6
-14 -14z"/>
<path d="M5034 2439 c-26 -26 -39 -31 -85 -32 l-54 -2 -5 -53 c-5 -45 -11 -57
-38 -78 -18 -14 -32 -31 -32 -37 0 -7 33 -45 73 -85 l73 -73 125 3 124 3 6 75
c3 42 9 85 13 98 6 18 -8 39 -75 117 -45 52 -85 95 -88 95 -4 0 -20 -14 -37
-31z"/>
<path d="M528 2382 c-53 -3 -59 -6 -101 -51 -45 -48 -45 -49 -46 -122 0 -41 6
-94 13 -118 l13 -44 109 -3 109 -3 81 78 80 78 -32 39 c-26 30 -34 50 -36 88
-2 40 -7 50 -23 51 -64 8 -117 10 -167 7z"/>
<path d="M1615 2361 c-49 -6 -50 -7 -53 -41 -2 -28 3 -41 23 -60 l25 -24 60
59 c33 33 60 63 60 67 0 9 -36 8 -115 -1z"/>
<path d="M3929 2276 c78 -79 85 -81 124 -38 13 14 17 32 15 63 l-3 44 -105 3
-105 3 74 -75z"/>
<path d="M4475 2177 c-14 -22 -13 -85 2 -109 6 -11 163 -10 163 1 0 10 -105
107 -132 122 -13 7 -21 4 -33 -14z"/>
<path d="M1109 2153 c-59 -52 -99 -91 -99 -98 0 -3 45 -5 100 -5 l100 0 0 44
c0 41 -28 96 -49 96 -5 0 -28 -17 -52 -37z"/>
<path d="M1546 2101 l-69 -69 24 -24 c13 -14 48 -46 77 -73 l52 -48 23 24 c13
13 45 44 71 68 l47 43 -73 74 c-40 40 -75 74 -78 74 -3 0 -36 -31 -74 -69z"/>
<path d="M3964 2134 c-16 -20 -44 -54 -61 -74 -18 -21 -33 -43 -33 -50 0 -7
28 -39 61 -72 l61 -60 55 54 c30 29 63 65 74 80 l20 27 -32 28 c-18 15 -39 35
-48 43 -9 8 -28 25 -42 38 l-27 24 -28 -38z"/>
<path d="M4728 2054 c-3 -3 -21 -6 -39 -6 l-32 -1 37 -30 c21 -17 59 -53 84
-81 93 -99 114 -117 131 -111 9 4 79 9 155 11 77 2 142 7 145 10 3 3 -43 53
-102 110 l-109 104 -132 0 c-73 0 -135 -3 -138 -6z"/>
<path d="M605 2013 c-119 -117 -204 -210 -193 -210 7 0 81 -3 165 -8 l152 -7
110 110 c61 60 111 115 111 121 0 7 -36 11 -114 11 -62 0 -133 3 -157 6 -40 5
-48 3 -74 -23z"/>
<path d="M5505 1982 c-8 -66 -8 -68 -6 -104 1 -25 4 -28 39 -28 24 1 47 9 66
25 33 26 36 17 -34 108 -50 66 -58 66 -65 -1z"/>
<path d="M63 1955 c-35 -35 -63 -73 -63 -83 0 -33 37 -57 91 -57 l49 -1 0 103
c0 57 -3 103 -7 103 -5 -1 -36 -30 -70 -65z"/>
<path d="M4198 2013 c-16 -4 -18 -17 -18 -103 l0 -99 94 3 c51 2 98 6 103 9 6
4 9 17 8 29 -1 13 -3 48 -4 78 -1 30 -5 60 -9 66 -7 12 -143 24 -174 17z"/>
<path d="M1250 1934 c0 -130 -2 -127 94 -119 56 5 85 12 94 23 13 17 17 129 4
149 -4 6 -48 14 -100 18 l-92 8 0 -79z"/>
<path d="M1817 1993 c-9 -8 -7 -150 2 -182 6 -23 11 -25 66 -22 33 1 77 7 99
12 l39 11 -7 66 c-3 37 -6 78 -6 92 0 25 -1 25 -93 27 -52 2 -97 0 -100 -4z"/>
<path d="M3614 1963 c-6 -22 1 -172 8 -179 2 -1 48 -4 103 -5 l100 -3 3 94 c1
51 -1 97 -7 103 -5 5 -52 10 -105 12 -95 2 -96 2 -102 -22z"/>
<path d="M1661 1817 c19 -15 10 -61 -14 -65 -12 -3 -21 6 -28 27 -6 17 -15 29
-19 26 -5 -3 -34 -6 -67 -6 -65 -2 -73 -8 -73 -60 0 -26 -8 -43 -30 -64 -16
-16 -30 -32 -30 -37 0 -4 14 -23 30 -41 24 -28 30 -44 30 -80 0 -50 5 -57 47
-58 31 -2 93 -29 93 -41 0 -5 11 -8 25 -8 19 0 26 7 34 33 5 17 10 26 10 18 1
-11 4 -11 16 -1 8 7 33 12 55 12 31 -1 40 3 40 16 0 13 2 14 9 3 5 -8 8 2 7
30 0 26 4 44 12 47 6 2 12 8 12 13 0 17 -15 9 -31 -17 l-16 -26 -5 25 c-4 18
-1 24 9 20 7 -3 13 0 13 7 0 8 9 10 26 6 21 -6 25 -4 21 8 -4 11 -1 16 11 16
15 0 15 2 2 10 -8 5 -11 10 -7 10 4 0 -3 11 -17 24 -22 19 -26 32 -26 75 l0
52 -47 -7 c-27 -3 -45 -3 -41 1 5 5 -6 17 -22 27 -34 20 -53 24 -29 5z m39
-38 c0 -5 -4 -9 -10 -9 -5 0 -10 7 -10 16 0 8 5 12 10 9 6 -3 10 -10 10 -16z
m-103 -16 c-3 -2 -16 -1 -29 3 l-23 8 25 6 c23 6 39 -4 27 -17z m168 -32 c-3
-6 -11 -11 -16 -11 -5 0 -4 6 3 14 14 16 24 13 13 -3z m-258 -33 c-3 -8 -6 -5
-6 6 -1 11 2 17 5 13 3 -3 4 -12 1 -19z"/>
<path d="M3947 1808 c-14 -14 -33 -22 -47 -21 -39 4 -63 -21 -66 -68 -1 -29
-10 -49 -29 -69 -28 -30 -28 -38 7 -76 12 -13 20 -39 22 -70 2 -46 4 -49 36
-55 19 -4 38 -5 43 -2 5 3 26 -11 46 -31 l37 -37 39 31 c30 24 47 30 85 30
l47 0 6 52 c5 39 14 59 37 83 20 21 28 37 24 48 -3 9 -9 17 -13 17 -16 0 -41
61 -41 99 0 23 -3 42 -7 42 -5 1 -30 3 -58 4 -67 4 -67 4 -61 13 3 5 -8 9 -24
9 -28 0 -29 -1 -14 -28 9 -18 10 -30 4 -34 -6 -3 -10 3 -10 14 0 11 -5 23 -10
26 -6 4 -8 15 -5 26 9 27 -20 25 -48 -3z m113 -58 c0 -5 -5 -10 -11 -10 -5 0
-7 5 -4 10 3 6 8 10 11 10 2 0 4 -4 4 -10z"/>
<path d="M5280 1805 c0 -2 29 -35 64 -72 l65 -68 26 25 c20 18 25 32 22 53 -2
15 0 30 5 33 5 3 1 12 -9 20 -17 12 -173 21 -173 9z"/>
<path d="M171 1791 c-19 -12 -4 -70 27 -103 14 -16 29 -28 32 -28 4 0 20 11
36 25 16 14 31 25 34 25 3 0 11 9 18 21 12 18 11 24 -6 40 -22 20 -118 34
-141 20z"/>
<path d="M758 1793 c-18 -3 -45 -27 -90 -81 -34 -42 -67 -82 -71 -89 -5 -8 21
-42 74 -98 l82 -85 112 0 112 0 7 56 c4 39 14 66 31 86 31 37 31 43 0 80 -18
22 -25 41 -25 74 0 27 -5 46 -12 48 -20 6 -190 13 -220 9z"/>
<path d="M4660 1753 c3 -68 0 -81 -26 -112 l-25 -30 31 -31 c36 -35 53 -76 45
-107 -5 -23 -4 -23 77 -22 46 1 92 4 104 7 24 8 109 109 136 162 l18 34 -73
68 -72 68 -108 0 -109 0 2 -37z"/>
<path d="M1145 1700 l-70 -70 72 -72 71 -71 71 64 c39 35 71 68 71 72 0 10
-130 147 -139 147 -4 0 -38 -32 -76 -70z"/>
<path d="M4327 1673 l-68 -66 68 -69 67 -68 68 67 c38 37 68 70 68 74 0 10
-118 129 -127 129 -4 0 -39 -30 -76 -67z"/>
<path d="M2296 1668 l-55 -63 31 -32 c32 -33 52 -38 96 -27 20 6 22 12 22 70
0 65 -12 114 -29 114 -5 0 -34 -28 -65 -62z"/>
<path d="M3241 1683 c0 -27 3 -66 7 -87 6 -36 10 -39 42 -42 29 -2 40 3 62 30
l28 33 -59 57 c-33 31 -64 56 -70 56 -6 0 -11 -20 -10 -47z"/>
<path d="M3584 1718 c-22 -12 -124 -109 -124 -119 0 -14 117 -129 131 -129 18
0 129 112 129 130 0 16 -55 83 -89 107 -21 16 -32 19 -47 11z"/>
<path d="M1991 1655 l-64 -65 39 -43 c22 -24 54 -54 72 -67 l32 -23 63 58 c34
32 66 62 70 66 11 9 -114 139 -134 139 -8 0 -43 -29 -78 -65z"/>
<path d="M2772 1584 c-32 -32 -52 -59 -45 -61 7 -2 10 -10 7 -17 -3 -7 12 -26
33 -42 20 -15 45 -36 55 -46 20 -20 15 -24 105 65 l43 41 -40 41 c-22 22 -54
49 -70 59 l-31 18 -57 -58z"/>
<path d="M5367 1620 c-8 -12 -35 -43 -61 -70 -25 -27 -46 -52 -46 -56 0 -7
141 3 164 12 27 10 -6 134 -35 134 -4 0 -14 -9 -22 -20z"/>
<path d="M201 1581 c-32 -27 -33 -31 -26 -76 l7 -48 85 7 c47 3 90 9 95 12 8
5 -112 134 -124 134 -2 0 -18 -13 -37 -29z"/>
<path d="M3042 1418 l3 -93 88 -3 c85 -3 87 -2 88 20 0 13 2 56 4 96 l4 72
-95 0 -95 0 3 -92z"/>
<path d="M2502 1492 c-7 -5 -24 -7 -36 -5 -13 3 -26 0 -30 -5 -7 -11 9 -180
17 -189 3 -3 46 -2 96 2 l90 7 -4 85 c-2 47 -8 89 -12 94 -13 12 -106 21 -121
11z"/>
<path d="M5179 1476 c-2 -2 -58 -6 -124 -10 l-120 -6 -35 -39 c-124 -136 -165
-184 -168 -192 -4 -11 144 -11 239 -1 60 7 70 11 95 42 16 19 64 72 106 117
43 45 78 84 78 87 0 6 -64 8 -71 2z"/>
<path d="M5499 1448 c-1 -7 -3 -46 -5 -85 -3 -89 2 -91 81 -27 l56 46 -17 26
c-24 40 -44 52 -81 52 -19 0 -34 -5 -34 -12z"/>
<path d="M453 1443 c-24 -9 -12 -38 46 -108 85 -103 106 -115 210 -116 47 0
112 -1 144 -2 45 -2 57 1 57 13 0 8 -45 61 -99 118 l-99 102 -124 -1 c-67 0
-129 -3 -135 -6z"/>
<path d="M1857 1443 c-2 -4 -7 -51 -11 -104 l-7 -96 103 -5 c57 -3 104 -4 106
-3 1 1 5 45 8 98 l6 95 -69 7 c-37 3 -82 8 -100 11 -17 2 -33 1 -36 -3z"/>
<path d="M1271 1427 c-7 -9 -15 -49 -18 -90 -7 -91 -3 -95 113 -98 l79 -2 3
96 c3 96 3 97 -21 97 -13 0 -51 3 -83 6 -47 5 -62 3 -73 -9z"/>
<path d="M3614 1429 c-9 -14 -8 -164 1 -178 3 -6 39 -11 85 -11 95 0 96 2 102
112 l3 76 -35 6 c-58 10 -148 7 -156 -5z"/>
<path d="M4221 1427 l-43 -10 7 -76 c4 -42 9 -79 12 -83 2 -5 44 -8 94 -8 l89
0 0 95 0 95 -57 -1 c-32 -1 -78 -6 -102 -12z"/>
<path d="M28 1395 c-10 -13 -18 -28 -18 -34 0 -11 120 -121 133 -121 5 0 6 17
3 38 -3 20 -8 61 -12 90 l-6 52 -41 0 c-33 -1 -46 -6 -59 -25z"/>
<path d="M1544 1308 c-41 -39 -74 -74 -74 -78 0 -12 157 -140 173 -140 14 0
127 120 127 135 0 10 -134 155 -144 155 -4 0 -41 -32 -82 -72z"/>
<path d="M3960 1330 c-24 -22 -45 -40 -47 -40 -2 0 -17 -12 -33 -27 l-29 -28
57 -72 c31 -39 63 -74 71 -77 14 -7 143 107 149 131 3 12 -105 153 -118 153
-4 0 -26 -18 -50 -40z"/>
<path d="M2820 1350 c0 -5 5 -10 11 -10 5 0 7 5 4 10 -3 6 -8 10 -11 10 -2 0
-4 -4 -4 -10z"/>
<path d="M2784 1318 c-10 -13 -12 -18 -5 -11 7 6 20 9 27 6 10 -4 12 0 8 11
-8 20 -7 20 -30 -6z"/>
<path d="M2890 1291 c13 -10 13 -12 0 -21 -12 -8 -11 -10 8 -10 15 0 21 4 16
11 -5 8 3 10 25 7 17 -2 31 -1 31 4 0 4 -10 8 -22 8 -13 0 -34 3 -48 6 -20 5
-22 3 -10 -5z"/>
<path d="M2405 1268 c-3 -8 -33 -37 -65 -64 -33 -27 -60 -54 -60 -60 0 -6 18
-25 40 -43 22 -17 40 -38 40 -45 0 -7 10 -22 23 -34 l22 -21 68 65 c66 64 67
65 53 92 -8 15 -37 49 -65 76 -39 38 -52 46 -56 34z"/>
<path d="M2650 1243 c0 -20 3 -33 7 -30 9 10 10 67 1 67 -5 0 -8 -16 -8 -37z"/>
<path d="M2753 1263 c1 -10 6 -24 10 -30 10 -16 -3 -38 -23 -38 -20 0 -25 -31
-5 -39 9 -3 14 -2 11 3 -3 5 7 11 22 14 29 6 43 0 26 -11 -5 -4 -9 -20 -8 -37
1 -16 -5 -40 -13 -52 -8 -13 -9 -23 -3 -23 5 0 10 -7 10 -15 0 -22 -50 -40
-72 -26 -10 6 -18 7 -18 2 0 -5 7 -11 15 -15 18 -7 20 -32 3 -39 -7 -3 -3 -6
9 -6 30 -1 53 9 53 24 0 7 7 16 16 19 15 6 15 4 1 -18 -15 -22 -15 -25 2 -40
17 -16 19 -15 24 5 3 11 10 18 15 15 5 -3 14 6 20 19 9 19 9 25 0 25 -6 0 -9
2 -6 5 3 3 17 0 32 -6 19 -9 23 -15 14 -21 -10 -6 -10 -10 2 -18 8 -5 10 -10
5 -10 -6 0 -16 5 -23 12 -6 6 -14 9 -17 6 -3 -2 3 -12 12 -21 16 -14 20 -14
40 3 l23 18 -20 25 c-22 28 -25 37 -10 37 6 0 10 -6 10 -14 0 -8 11 -13 30
-12 29 1 38 21 9 21 -8 0 -13 9 -12 20 1 10 -7 30 -18 43 -10 14 -19 35 -19
48 0 19 -5 24 -24 24 -13 0 -27 -7 -30 -15 -5 -13 -10 -14 -26 -5 -18 10 -19
14 -8 27 10 13 10 17 1 20 -25 9 -12 22 25 25 l37 3 -27 14 c-16 8 -24 19 -21
27 3 8 0 14 -6 14 -6 0 -11 -7 -11 -15 0 -13 -4 -12 -22 5 -27 25 -39 26 -35
3z m82 -181 c-8 -9 -25 20 -18 31 3 5 10 2 15 -7 6 -10 7 -20 3 -24z m45 -2
c-8 -5 -19 -10 -25 -10 -5 0 -3 5 5 10 8 5 20 10 25 10 6 0 3 -5 -5 -10z m26
-27 c-10 -10 -19 5 -10 18 6 11 8 11 12 0 2 -7 1 -15 -2 -18z m-66 -13 c0 -5
-7 -10 -15 -10 -8 0 -15 5 -15 10 0 6 7 10 15 10 8 0 15 -4 15 -10z m-90 -64
c0 -3 -4 -8 -10 -11 -5 -3 -10 -1 -10 4 0 6 5 11 10 11 6 0 10 -2 10 -4z"/>
<path d="M2850 1256 c0 -9 5 -16 10 -16 6 0 10 4 10 9 0 6 -4 13 -10 16 -5 3
-10 -1 -10 -9z"/>
<path d="M2700 1251 c0 -6 4 -13 10 -16 6 -3 7 1 4 9 -7 18 -14 21 -14 7z"/>
<path d="M3177 1209 c-37 -28 -67 -57 -67 -65 0 -7 9 -19 20 -27 12 -8 34 -35
50 -61 17 -26 36 -49 44 -52 9 -3 31 9 53 29 21 20 50 45 66 57 15 12 27 25
27 29 0 4 -28 38 -63 75 l-64 67 -66 -52z m25 -81 c-7 -7 -12 -8 -12 -2 0 14
12 26 19 19 2 -3 -1 -11 -7 -17z"/>
<path d="M2928 1243 c13 -3 22 -12 22 -23 0 -10 3 -26 6 -35 5 -13 8 -14 15
-3 6 10 11 10 21 0 9 -9 9 -12 -2 -12 -7 0 -11 -2 -8 -5 12 -12 36 7 31 25 -3
10 -11 16 -18 14 -8 -3 -21 6 -30 20 -11 16 -26 25 -39 25 -20 -2 -20 -2 2 -6z"/>
<path d="M2681 1223 c-1 -13 4 -23 9 -23 6 0 10 -10 11 -22 0 -22 1 -22 9 -3
5 13 4 24 -4 30 -7 6 -15 17 -19 25 -4 10 -6 8 -6 -7z"/>
<path d="M397 1213 c-2 -5 -5 -58 -6 -119 l-2 -111 78 -82 78 -82 35 30 c28
24 44 30 83 31 26 0 47 3 47 8 3 54 16 91 41 117 16 17 29 38 29 46 0 8 -33
48 -74 88 l-74 74 -115 3 c-64 3 -118 1 -120 -3z"/>
<path d="M2867 1195 c-21 -15 -6 -31 19 -21 10 4 18 -1 21 -14 3 -10 13 -22
24 -25 10 -3 21 -15 24 -26 4 -10 11 -19 16 -19 6 0 7 -4 4 -10 -3 -6 1 -7 9
-4 9 3 16 15 16 25 0 12 -5 16 -15 13 -14 -6 -19 5 -16 34 1 6 -8 12 -19 12
-16 0 -20 4 -15 19 7 24 -11 37 -29 21 -9 -6 -15 -7 -18 -1 -2 5 -11 4 -21 -4z"/>
<path d="M5455 1172 c-16 -19 -60 -66 -97 -106 -57 -61 -67 -78 -72 -116 -7
-57 -9 -126 -7 -215 l2 -70 110 115 109 114 -1 86 c-1 47 -4 117 -8 156 l-6
71 -30 -35z"/>
<path d="M150 1037 l0 -164 73 -74 c39 -41 89 -94 110 -118 21 -23 40 -41 43
-39 2 3 6 76 9 164 l6 159 -114 118 c-63 64 -117 117 -121 117 -3 0 -6 -74 -6
-163z"/>
<path d="M4942 1125 l-77 -74 32 -33 c23 -25 33 -46 38 -85 l7 -53 44 0 c37 0
51 -6 85 -37 l40 -36 80 79 79 79 0 67 c0 37 -5 89 -11 117 l-10 49 -115 0
-114 0 -78 -73z"/>
<path d="M2086 1177 c-14 -10 -16 -28 -14 -100 l3 -88 63 62 c34 35 62 68 62
74 0 18 -53 62 -77 63 -11 0 -28 -5 -37 -11z"/>
<path d="M3445 1160 c-24 -26 -26 -32 -15 -47 26 -34 124 -133 132 -133 5 0 6
37 3 83 -9 127 -9 127 -53 127 -29 0 -45 -7 -67 -30z"/>
<path d="M4450 1103 l0 -86 28 24 c72 63 132 125 132 136 0 10 -22 13 -80 13
l-80 0 0 -87z"/>
<path d="M1064 1119 c27 -30 72 -76 100 -104 l51 -50 6 85 c4 60 3 89 -6 98
-7 8 -48 15 -106 19 l-94 6 49 -54z"/>
<path d="M2617 1142 c-21 -23 -21 -28 1 -52 17 -19 18 -19 18 0 0 10 -3 18 -6
18 -18 -1 -19 5 -4 27 19 29 14 33 -9 7z"/>
<path d="M2683 1120 c1 -11 5 -20 9 -20 4 0 8 9 8 20 0 11 -4 20 -9 20 -6 0
-9 -9 -8 -20z"/>
<path d="M3030 1130 c0 -6 4 -9 9 -6 5 4 12 1 14 -4 3 -6 4 -5 3 2 -3 15 -26
23 -26 8z"/>
<path d="M2740 1120 c0 -5 5 -10 11 -10 5 0 7 5 4 10 -3 6 -8 10 -11 10 -2 0
-4 -4 -4 -10z"/>
<path d="M2650 1070 c0 -5 5 -10 10 -10 6 0 10 5 10 10 0 6 -4 10 -10 10 -5 0
-10 -4 -10 -10z"/>
<path d="M2680 1063 c0 -4 5 -15 10 -23 8 -13 10 -13 10 2 0 9 -4 20 -10 23
-5 3 -10 3 -10 -2z"/>
<path d="M2984 1049 c-3 -6 -1 -16 5 -22 8 -8 11 -5 11 11 0 24 -5 28 -16 11z"/>
<path d="M2662 1020 c0 -14 2 -19 5 -12 2 6 2 18 0 25 -3 6 -5 1 -5 -13z"/>
<path d="M1590 995 c-31 -32 -39 -35 -88 -35 l-54 0 6 -31 c3 -17 6 -69 6
-114 l0 -83 86 -76 c76 -67 124 -93 124 -68 0 4 29 37 64 75 l65 67 0 110 c1
121 3 117 -68 111 -16 -2 -37 11 -65 38 l-42 41 -34 -35z"/>
<path d="M3954 991 c-22 -20 -46 -30 -84 -35 l-53 -7 7 -87 c4 -48 8 -97 9
-109 2 -14 37 -52 91 -98 l88 -76 58 53 c32 29 58 58 59 63 0 6 10 16 21 23
18 11 20 23 20 132 l0 120 -56 0 c-44 0 -62 5 -88 25 -18 14 -35 25 -37 25 -2
0 -18 -13 -35 -29z"/>
<path d="M5588 957 c-91 -102 -87 -91 -81 -205 l6 -102 45 0 c28 0 52 -6 64
-17 17 -15 18 -15 18 10 0 14 -5 27 -11 29 -9 3 -9 10 0 26 8 14 11 70 9 166
l-3 145 -47 -52z"/>
<path d="M0 796 c0 -108 4 -196 8 -196 4 0 13 5 20 12 7 7 36 12 65 13 l52 0
3 114 c3 107 1 114 -20 133 -13 10 -47 42 -75 70 l-53 51 0 -197z"/>
<path d="M2950 975 c-11 -13 -8 -15 13 -15 28 0 44 15 27 25 -5 3 -10 1 -10
-4 0 -6 -5 -11 -11 -11 -5 0 -7 5 -4 10 9 15 -1 12 -15 -5z"/>
<path d="M1989 892 c-36 -31 -88 -77 -117 -100 l-52 -44 0 -159 c0 -87 3 -159
8 -159 4 0 56 42 116 93 77 64 112 101 118 122 7 26 3 294 -5 301 -2 2 -32
-22 -68 -54z"/>
<path d="M3573 796 c4 -110 9 -162 19 -173 23 -29 216 -223 222 -223 2 0 2 74
-1 165 l-6 166 -109 107 c-60 59 -114 109 -119 111 -7 2 -9 -48 -6 -153z"/>
<path d="M2430 856 c0 -55 4 -87 13 -94 16 -12 193 -26 200 -15 3 5 8 50 11
101 l5 92 -114 0 -115 0 0 -84z"/>
<path d="M4284 828 c-56 -57 -104 -112 -108 -123 -4 -10 -4 -84 0 -162 l7
-143 113 108 112 107 1 135 c1 130 -4 180 -18 180 -3 0 -52 -46 -107 -102z"/>
<path d="M1221 777 l-1 -144 29 -26 c16 -14 32 -23 36 -19 3 3 4 0 0 -8 -6
-18 160 -188 172 -176 4 4 9 71 11 150 l4 142 -117 109 c-65 61 -121 111 -126
113 -4 2 -8 -62 -8 -141z"/>
<path d="M2830 906 c7 -7 13 -7 20 0 6 6 3 10 -10 10 -13 0 -16 -4 -10 -10z"/>
<path d="M3016 903 c-4 -15 -9 -126 -7 -159 1 -15 167 -12 183 4 16 16 18 153
3 164 -5 4 -47 8 -92 8 -69 0 -82 -3 -87 -17z"/>
<path d="M2760 799 c-36 -39 -67 -75 -69 -81 -2 -5 27 -39 65 -74 l68 -64 25
32 c14 18 36 43 49 56 12 13 30 34 38 48 15 23 15 26 -10 59 -28 36 -87 95
-96 95 -3 0 -35 -32 -70 -71z"/>
<path d="M762 808 c-6 -24 -8 -46 -4 -50 4 -3 27 -8 52 -10 l45 -3 3 49 c3 40
1 48 -12 43 -8 -3 -18 -2 -21 3 -4 6 -17 10 -29 10 -19 0 -26 -8 -34 -42z"/>
<path d="M4796 822 c-2 -4 -2 -27 1 -50 6 -42 6 -42 49 -42 51 0 58 8 49 60
-7 39 -7 40 -50 40 -24 0 -46 -4 -49 -8z"/>
<path d="M1027 737 c-31 -33 -40 -37 -86 -37 l-51 0 0 -48 c0 -41 -5 -53 -30
-77 -16 -16 -30 -33 -30 -39 0 -6 35 -46 77 -88 70 -70 75 -78 53 -79 -14 -1
-29 -2 -35 -4 -5 -1 -61 -3 -122 -3 -62 -1 -113 -6 -113 -10 0 -4 48 -58 108
-119 l107 -112 163 6 163 6 -116 112 c-63 62 -115 118 -115 123 0 6 42 12 100
14 76 2 103 7 110 18 5 8 10 59 10 112 l0 97 -79 82 -79 82 -35 -36z"/>
<path d="M2159 723 c-24 -27 -56 -61 -71 -78 l-26 -30 13 -110 c8 -60 14 -111
14 -112 1 -2 38 -3 84 -3 122 1 165 12 200 51 17 19 46 51 66 72 l35 37 -37
31 c-33 27 -37 35 -37 79 0 53 -8 60 -68 60 -23 0 -51 10 -74 25 -20 14 -41
25 -45 25 -5 0 -29 -21 -54 -47z"/>
<path d="M4503 695 l-72 -75 0 -115 -1 -115 63 -1 c34 -1 89 -1 121 -1 l59 0
68 68 c38 38 69 73 69 79 -1 5 -14 26 -30 45 -24 28 -30 44 -30 82 l0 48 -43
0 c-33 0 -51 7 -77 30 -19 16 -39 29 -45 29 -5 0 -42 -33 -82 -74z"/>
<path d="M3375 730 c-25 -26 -36 -30 -82 -30 l-53 0 0 -39 c0 -24 -9 -51 -25
-75 -14 -20 -25 -45 -25 -54 0 -10 33 -50 73 -90 l72 -72 106 0 c68 0 109 4
117 12 8 8 12 49 12 118 l0 107 -75 74 c-41 41 -79 75 -83 77 -4 1 -21 -11
-37 -28z"/>
<path d="M406 563 c-8 -57 -2 -131 13 -146 15 -15 156 -17 156 -1 0 6 -37 50
-82 98 l-81 87 -6 -38z"/>
<path d="M5173 518 c-41 -31 -143 -125 -143 -133 0 -3 44 -4 98 -3 l97 3 3 35
c4 43 -7 120 -17 120 -4 0 -21 -10 -38 -22z"/>
<path d="M0 385 c0 -69 3 -125 8 -125 4 1 34 25 67 55 l60 54 -23 23 c-12 14
-22 31 -22 39 0 22 -21 39 -48 39 -19 0 -23 4 -19 20 3 13 0 20 -9 20 -11 0
-14 -24 -14 -125z"/>
<path d="M2735 457 c-30 -29 -55 -57 -55 -63 0 -5 51 -9 120 -9 100 0 120 3
120 15 0 17 -99 110 -118 110 -7 0 -37 -24 -67 -53z"/>
<path d="M5570 435 l-64 -65 61 -62 c34 -34 65 -60 68 -56 3 3 4 60 3 126 l-3
121 -65 -64z"/>
<path d="M120 404 c14 -16 28 -31 31 -34 3 -3 1 -49 -4 -103 -5 -54 -7 -100
-5 -101 8 -8 187 -13 198 -6 7 4 15 31 18 60 3 34 8 47 13 38 6 -9 9 -4 9 15
0 16 -4 26 -10 22 -7 -4 -7 3 0 20 6 15 6 24 1 20 -5 -3 -12 -1 -16 5 -3 5 0
10 7 10 9 0 9 3 -2 10 -8 6 -48 8 -90 6 -51 -3 -64 -2 -40 3 37 9 27 12 -44
15 -22 1 -41 7 -44 14 -2 7 -13 17 -25 23 -20 11 -20 10 3 -17z"/>
<path d="M2192 269 c-62 -61 -111 -113 -110 -114 2 -1 76 -5 164 -7 l161 -5
102 103 c55 56 101 107 101 113 0 7 -39 11 -112 12 -62 0 -131 2 -153 5 -39 4
-42 2 -153 -107z"/>
<path d="M4570 265 c-59 -59 -100 -108 -96 -114 5 -7 53 -11 139 -11 l132 0
103 96 c56 53 102 99 102 104 0 10 -63 17 -191 23 l-87 5 -102 -103z"/>
<path d="M3030 345 c0 -15 197 -198 225 -209 21 -9 306 -8 315 0 2 3 -47 53
-109 112 l-114 107 -159 1 c-118 1 -158 -2 -158 -11z"/>
<path d="M5470 356 c-3 -2 -46 -8 -95 -12 -50 -3 -92 -8 -95 -10 -3 -1 -5 -15
-4 -31 1 -15 3 -59 3 -96 l1 -68 103 7 c56 4 103 7 104 8 1 1 -1 48 -5 105 -4
56 -9 100 -12 97z"/>
<path d="M1726 283 l-58 -65 28 -29 c22 -23 36 -29 72 -29 l45 0 -7 38 c-3 20
-6 63 -6 95 0 31 -3 57 -7 56 -5 0 -34 -30 -67 -66z"/>
<path d="M1496 249 c3 -52 7 -95 8 -95 0 -1 18 -4 38 -8 32 -6 40 -3 62 21 14
15 26 32 26 36 0 7 -82 90 -128 129 -11 9 -12 -6 -6 -83z"/>
<path d="M3848 313 c-2 -15 -4 -57 -3 -93 l0 -65 40 -2 c31 -2 47 3 68 22 34
30 30 39 -46 113 l-54 54 -5 -29z"/>
<path d="M4114 307 c-17 -12 -45 -38 -62 -58 -30 -34 -31 -37 -14 -52 9 -9 30
-21 47 -27 27 -10 32 -9 52 15 18 21 23 38 23 86 0 32 -3 59 -7 59 -5 -1 -22
-11 -39 -23z"/>
<path d="M372 210 c0 -19 2 -27 5 -17 2 9 2 25 0 35 -3 9 -5 1 -5 -18z"/>
<path d="M0 137 c0 -53 5 -75 22 -102 22 -34 25 -35 86 -35 49 0 62 3 62 16 0
8 -4 13 -9 10 -11 -7 -31 46 -31 80 0 25 -36 42 -65 30 -9 -3 -15 0 -15 8 0 7
-11 23 -25 36 l-25 23 0 -66z"/>
<path d="M5620 135 c7 -9 15 -13 17 -11 7 7 -7 26 -19 26 -6 0 -6 -6 2 -15z"/>
<path d="M394 117 c21 -34 14 -47 -12 -24 -17 15 -22 13 -77 -38 l-59 -55 112
0 c62 0 112 3 112 6 0 4 -14 20 -31 36 -17 16 -28 32 -25 35 2 3 24 -14 47
-36 68 -68 54 -40 -17 35 -37 38 -59 56 -50 41z"/>
<path d="M1843 123 c-8 -3 -13 -21 -13 -43 0 -30 6 -43 26 -59 15 -12 30 -21
33 -21 4 0 38 29 76 65 l70 64 -90 -1 c-49 0 -96 -3 -102 -5z"/>
<path d="M2331 71 c-28 -32 -51 -61 -51 -65 0 -3 84 -6 186 -6 l185 0 -20 26
c-13 17 -21 41 -21 65 l0 39 -114 0 -114 0 -51 -59z"/>
<path d="M3015 116 c-2 -6 -6 -35 -9 -63 l-5 -53 179 0 178 0 -62 60 -62 60
-108 4 c-75 3 -109 0 -111 -8z"/>
<path d="M3667 122 c-34 -4 -33 -8 14 -58 62 -69 63 -69 103 -33 26 22 36 39
36 60 0 16 -3 29 -7 30 -43 3 -124 4 -146 1z"/>
<path d="M4729 67 c-30 -32 -56 -60 -58 -62 -2 -3 72 -5 166 -5 l170 0 -5 58
c-2 31 -5 58 -6 59 -1 1 -49 3 -107 5 l-107 3 -53 -58z"/>
<path d="M5586 118 c3 -5 10 -6 15 -3 13 9 11 12 -6 12 -8 0 -12 -4 -9 -9z"/>
<path d="M633 78 c4 -31 1 -48 -10 -60 -15 -17 -7 -18 178 -18 l193 0 -34 30
c-99 86 -109 90 -226 90 l-107 0 6 -42z"/>
<path d="M1260 113 c0 -6 26 -34 57 -62 84 -74 129 -69 140 19 3 22 4 40 2 40
-73 9 -199 10 -199 3z"/>
<path d="M4210 75 c0 -47 20 -75 55 -75 25 0 41 10 77 50 l45 50 -88 0 c-88 0
-89 0 -89 -25z"/>
<path d="M5217 52 l-37 -47 81 -3 c45 -2 84 0 87 3 6 5 -77 95 -88 95 -3 -1
-22 -22 -43 -48z"/>
<path d="M5570 71 c-13 -25 -13 -31 3 -31 6 0 12 11 12 25 0 30 -1 31 -15 6z"/>
<path d="M5525 50 c3 -5 10 -10 16 -10 5 0 9 5 9 10 0 6 -7 10 -16 10 -8 0
-12 -4 -9 -10z"/>
<path d="M2804 15 c-18 -13 -16 -14 20 -15 33 0 37 2 26 15 -15 19 -21 19 -46
0z"/>
</g>
</svg>
